<?xml version="1.0" encoding="us-ascii" standalone="no"?><svg xmlns="http://www.w3.org/2000/svg" xmlns:xlink="http://www.w3.org/1999/xlink" contentStyleType="text/css" height="823px" preserveAspectRatio="none" style="width:401px;height:823px;background:#FFFFFF;" version="1.1" viewBox="0 0 401 823" width="401px" zoomAndPan="magnify"><defs/><g><ellipse cx="179" cy="20" fill="#222222" rx="10" ry="10" style="stroke:#222222;stroke-width:1.0;"/><rect fill="#F1F1F1" height="37.3761" rx="12.5" ry="12.5" style="stroke:#181818;stroke-width:0.5;" width="153" x="102.5" y="50"/><text fill="#000000" font-family="sans-serif" font-size="12" lengthAdjust="spacing" textLength="133" x="112.5" y="73.9201">New/Updated resource</text><polygon fill="#F1F1F1" points="143.5,257.2679,214.5,257.2679,226.5,269.2679,214.5,281.2679,143.5,281.2679,131.5,269.2679,143.5,257.2679" style="stroke:#181818;stroke-width:0.5;"/><text fill="#000000" font-family="sans-serif" font-size="11" lengthAdjust="spacing" textLength="17" x="183" y="294.0278">yes</text><text fill="#000000" font-family="sans-serif" font-size="11" lengthAdjust="spacing" textLength="71" x="143.5" y="274.0639">Cluster exists?</text><text fill="#000000" font-family="sans-serif" font-size="11" lengthAdjust="spacing" textLength="14" x="226.5" y="266.1">no</text><ellipse cx="262.5" cy="269.2679" fill="none" rx="11" ry="11" style="stroke:#222222;stroke-width:1.0;"/><ellipse cx="262.5" cy="269.2679" fill="#222222" rx="6" ry="6" style="stroke:#111111;stroke-width:1.0;"/><rect fill="#F1F1F1" height="37.3761" rx="12.5" ry="12.5" style="stroke:#181818;stroke-width:0.5;" width="219" x="69.5" y="365.4918"/><text fill="#000000" font-family="sans-serif" font-size="12" lengthAdjust="spacing" textLength="196" x="82.5" y="389.4119">ensureBootstrapSecretOwnersRef</text><rect fill="#F1F1F1" height="37.3761" rx="12.5" ry="12.5" style="stroke:#181818;stroke-width:0.5;" width="189" x="84.5" y="422.8679"/><text fill="#000000" font-family="sans-serif" font-size="12" lengthAdjust="spacing" textLength="169" x="94.5" y="446.788">Point status.dataSecretName</text><rect fill="#F1F1F1" height="37.3761" rx="12.5" ry="12.5" style="stroke:#181818;stroke-width:0.5;" width="336" x="11" y="530.208"/><text fill="#000000" font-family="sans-serif" font-size="12" lengthAdjust="spacing" textLength="316" x="21" y="554.1281">Generate bootstrap task job &amp; get job log and job status</text><polygon fill="#F1F1F1" points="108,480.244,250,480.244,262,492.244,250,504.244,108,504.244,96,492.244,108,480.244" style="stroke:#181818;stroke-width:0.5;"/><text fill="#000000" font-family="sans-serif" font-size="11" lengthAdjust="spacing" textLength="14" x="183" y="517.0039">no</text><text fill="#000000" font-family="sans-serif" font-size="11" lengthAdjust="spacing" textLength="142" x="108" y="497.04">Bootstrap task job finished?</text><text fill="#000000" font-family="sans-serif" font-size="11" lengthAdjust="spacing" textLength="17" x="262" y="489.0761">yes</text><polygon fill="#F1F1F1" points="179,587.5841,191,599.5841,179,611.5841,167,599.5841,179,587.5841" style="stroke:#181818;stroke-width:0.5;"/><rect fill="#F1F1F1" height="37.3761" rx="12.5" ry="12.5" style="stroke:#181818;stroke-width:0.5;" width="154" x="102" y="631.5841"/><text fill="#000000" font-family="sans-serif" font-size="12" lengthAdjust="spacing" textLength="134" x="112" y="655.5042">set status.ready to true</text><polygon fill="#F1F1F1" points="140,315.5278,218,315.5278,230,327.5278,218,339.5278,140,339.5278,128,327.5278,140,315.5278" style="stroke:#181818;stroke-width:0.5;"/><text fill="#000000" font-family="sans-serif" font-size="11" lengthAdjust="spacing" textLength="14" x="183" y="352.2878">no</text><text fill="#000000" font-family="sans-serif" font-size="11" lengthAdjust="spacing" textLength="78" x="140" y="332.3238">Cluster pause?)</text><text fill="#000000" font-family="sans-serif" font-size="11" lengthAdjust="spacing" textLength="17" x="230" y="324.3599">yes</text><ellipse cx="269" cy="327.5278" fill="none" rx="11" ry="11" style="stroke:#222222;stroke-width:1.0;"/><ellipse cx="269" cy="327.5278" fill="#222222" rx="6" ry="6" style="stroke:#111111;stroke-width:1.0;"/><polygon fill="#F1F1F1" points="73.5,207.304,284.5,207.304,296.5,219.304,284.5,231.304,73.5,231.304,61.5,219.304,73.5,207.304" style="stroke:#181818;stroke-width:0.5;"/><text fill="#000000" font-family="sans-serif" font-size="11" lengthAdjust="spacing" textLength="14" x="183" y="244.0639">no</text><text fill="#000000" font-family="sans-serif" font-size="11" lengthAdjust="spacing" textLength="211" x="73.5" y="224.1">Has status.failureReason/failureMessage?</text><text fill="#000000" font-family="sans-serif" font-size="11" lengthAdjust="spacing" textLength="17" x="296.5" y="216.136">yes</text><ellipse cx="335.5" cy="219.304" fill="none" rx="11" ry="11" style="stroke:#222222;stroke-width:1.0;"/><ellipse cx="335.5" cy="219.304" fill="#222222" rx="6" ry="6" style="stroke:#111111;stroke-width:1.0;"/><polygon fill="#F1F1F1" points="126,157.3401,232,157.3401,244,169.3401,232,181.3401,126,181.3401,114,169.3401,126,157.3401" style="stroke:#181818;stroke-width:0.5;"/><text fill="#000000" font-family="sans-serif" font-size="11" lengthAdjust="spacing" textLength="17" x="183" y="194.1">yes</text><text fill="#000000" font-family="sans-serif" font-size="11" lengthAdjust="spacing" textLength="106" x="126" y="174.136">Has machine owner?</text><text fill="#000000" font-family="sans-serif" font-size="11" lengthAdjust="spacing" textLength="14" x="244" y="166.1721">no</text><polygon fill="#F1F1F1" points="179,688.9602,191,700.9602,179,712.9602,167,700.9602,179,688.9602" style="stroke:#181818;stroke-width:0.5;"/><polygon fill="#F1F1F1" points="156.5,107.3761,201.5,107.3761,213.5,119.3761,201.5,131.3761,156.5,131.3761,144.5,119.3761,156.5,107.3761" style="stroke:#181818;stroke-width:0.5;"/><text fill="#000000" font-family="sans-serif" font-size="11" lengthAdjust="spacing" textLength="14" x="183" y="144.136">no</text><text fill="#000000" font-family="sans-serif" font-size="11" lengthAdjust="spacing" textLength="45" x="156.5" y="124.1721">Deleted?</text><text fill="#000000" font-family="sans-serif" font-size="11" lengthAdjust="spacing" textLength="17" x="213.5" y="116.2081">yes</text><ellipse cx="252.5" cy="119.3761" fill="none" rx="11" ry="11" style="stroke:#222222;stroke-width:1.0;"/><ellipse cx="252.5" cy="119.3761" fill="#222222" rx="6" ry="6" style="stroke:#111111;stroke-width:1.0;"/><rect fill="#F1F1F1" height="37.3761" rx="12.5" ry="12.5" style="stroke:#181818;stroke-width:0.5;" width="213" x="72.5" y="732.9602"/><text fill="#000000" font-family="sans-serif" font-size="12" lengthAdjust="spacing" textLength="193" x="82.5" y="756.8803">Patch resource to persist changes</text><ellipse cx="179" cy="801.3363" fill="none" rx="11" ry="11" style="stroke:#222222;stroke-width:1.0;"/><ellipse cx="179" cy="801.3363" fill="#222222" rx="6" ry="6" style="stroke:#111111;stroke-width:1.0;"/><line style="stroke:#181818;stroke-width:1.0;" x1="179" x2="179" y1="30" y2="50"/><polygon fill="#181818" points="175,40,179,50,183,40,179,44" style="stroke:#181818;stroke-width:1.0;"/><line style="stroke:#181818;stroke-width:1.0;" x1="179" x2="179" y1="281.2679" y2="315.5278"/><polygon fill="#181818" points="175,305.5278,179,315.5278,183,305.5278,179,309.5278" style="stroke:#181818;stroke-width:1.0;"/><line style="stroke:#181818;stroke-width:1.0;" x1="226.5" x2="251.5" y1="269.2679" y2="269.2679"/><polygon fill="#181818" points="241.5,265.2679,251.5,269.2679,241.5,273.2679,245.5,269.2679" style="stroke:#181818;stroke-width:1.0;"/><line style="stroke:#181818;stroke-width:1.0;" x1="179" x2="179" y1="402.8679" y2="422.8679"/><polygon fill="#181818" points="175,412.8679,179,422.8679,183,412.8679,179,416.8679" style="stroke:#181818;stroke-width:1.0;"/><line style="stroke:#181818;stroke-width:1.0;" x1="179" x2="179" y1="504.244" y2="530.208"/><polygon fill="#181818" points="175,520.208,179,530.208,183,520.208,179,524.208" style="stroke:#181818;stroke-width:1.0;"/><line style="stroke:#181818;stroke-width:1.0;" x1="262" x2="357" y1="492.244" y2="492.244"/><polygon fill="#181818" points="353,538.896,357,548.896,361,538.896,357,542.896" style="stroke:#181818;stroke-width:1.0;"/><line style="stroke:#181818;stroke-width:1.0;" x1="357" x2="357" y1="492.244" y2="599.5841"/><line style="stroke:#181818;stroke-width:1.0;" x1="357" x2="191" y1="599.5841" y2="599.5841"/><polygon fill="#181818" points="201,595.5841,191,599.5841,201,603.5841,197,599.5841" style="stroke:#181818;stroke-width:1.0;"/><line style="stroke:#181818;stroke-width:1.0;" x1="179" x2="179" y1="567.5841" y2="587.5841"/><polygon fill="#181818" points="175,577.5841,179,587.5841,183,577.5841,179,581.5841" style="stroke:#181818;stroke-width:1.0;"/><line style="stroke:#181818;stroke-width:1.0;" x1="179" x2="179" y1="460.244" y2="480.244"/><polygon fill="#181818" points="175,470.244,179,480.244,183,470.244,179,474.244" style="stroke:#181818;stroke-width:1.0;"/><line style="stroke:#181818;stroke-width:1.0;" x1="179" x2="179" y1="611.5841" y2="631.5841"/><polygon fill="#181818" points="175,621.5841,179,631.5841,183,621.5841,179,625.5841" style="stroke:#181818;stroke-width:1.0;"/><line style="stroke:#181818;stroke-width:1.0;" x1="179" x2="179" y1="339.5278" y2="365.4918"/><polygon fill="#181818" points="175,355.4918,179,365.4918,183,355.4918,179,359.4918" style="stroke:#181818;stroke-width:1.0;"/><line style="stroke:#181818;stroke-width:1.0;" x1="230" x2="258" y1="327.5278" y2="327.5278"/><polygon fill="#181818" points="248,323.5278,258,327.5278,248,331.5278,252,327.5278" style="stroke:#181818;stroke-width:1.0;"/><line style="stroke:#181818;stroke-width:1.0;" x1="179" x2="179" y1="668.9602" y2="688.9602"/><polygon fill="#181818" points="175,678.9602,179,688.9602,183,678.9602,179,682.9602" style="stroke:#181818;stroke-width:1.0;"/><line style="stroke:#181818;stroke-width:1.0;" x1="179" x2="179" y1="231.304" y2="257.2679"/><polygon fill="#181818" points="175,247.2679,179,257.2679,183,247.2679,179,251.2679" style="stroke:#181818;stroke-width:1.0;"/><line style="stroke:#181818;stroke-width:1.0;" x1="296.5" x2="324.5" y1="219.304" y2="219.304"/><polygon fill="#181818" points="314.5,215.304,324.5,219.304,314.5,223.304,318.5,219.304" style="stroke:#181818;stroke-width:1.0;"/><line style="stroke:#181818;stroke-width:1.0;" x1="179" x2="179" y1="181.3401" y2="207.304"/><polygon fill="#181818" points="175,197.304,179,207.304,183,197.304,179,201.304" style="stroke:#181818;stroke-width:1.0;"/><line style="stroke:#181818;stroke-width:1.0;" x1="244" x2="375" y1="169.3401" y2="169.3401"/><polygon fill="#181818" points="371,438.244,375,448.244,379,438.244,375,442.244" style="stroke:#181818;stroke-width:1.0;"/><line style="stroke:#181818;stroke-width:1.0;" x1="375" x2="375" y1="169.3401" y2="700.9602"/><line style="stroke:#181818;stroke-width:1.0;" x1="375" x2="191" y1="700.9602" y2="700.9602"/><polygon fill="#181818" points="201,696.9602,191,700.9602,201,704.9602,197,700.9602" style="stroke:#181818;stroke-width:1.0;"/><line style="stroke:#181818;stroke-width:1.0;" x1="179" x2="179" y1="131.3761" y2="157.3401"/><polygon fill="#181818" points="175,147.3401,179,157.3401,183,147.3401,179,151.3401" style="stroke:#181818;stroke-width:1.0;"/><line style="stroke:#181818;stroke-width:1.0;" x1="213.5" x2="241.5" y1="119.3761" y2="119.3761"/><polygon fill="#181818" points="231.5,115.3761,241.5,119.3761,231.5,123.3761,235.5,119.3761" style="stroke:#181818;stroke-width:1.0;"/><line style="stroke:#181818;stroke-width:1.0;" x1="179" x2="179" y1="712.9602" y2="732.9602"/><polygon fill="#181818" points="175,722.9602,179,732.9602,183,722.9602,179,726.9602" style="stroke:#181818;stroke-width:1.0;"/><line style="stroke:#181818;stroke-width:1.0;" x1="179" x2="179" y1="87.3761" y2="107.3761"/><polygon fill="#181818" points="175,97.3761,179,107.3761,183,97.3761,179,101.3761" style="stroke:#181818;stroke-width:1.0;"/><line style="stroke:#181818;stroke-width:1.0;" x1="179" x2="179" y1="770.3363" y2="790.3363"/><polygon fill="#181818" points="175,780.3363,179,790.3363,183,780.3363,179,784.3363" style="stroke:#181818;stroke-width:1.0;"/><!--SRC=[VLFBJiCm4BpdA_Q4sWkzfmSaG88BfIhY0xR9936aTkJTgFJlSHAQFfpYW-LTxSwCPsrHzfeawGhxnMUJio8d3t6jpx1C4bFGx1arGlfXJbh1qkm0cISKbgXh4jG2cbatfBhwLnRQSLOP2t9x2nztdfUAihPoNx2fMuyDM9nT_4Ll4E4Iqm2ZX6DmAUMSvwbkHU49FqPKHhZhqWZnX1enm-Qck4dKS2j1zatT_p1DYKe3dGG_7frJKS_D1p8FVU_SbGsAPTonTiRgqTmmLnvQLhn3NDr97x59MRxfossfCDP8TJRwAMqzsmk2al1uQ1kZt549xK-rAubjtfy7PR6K6tPFMzvp2yPxUd1-87MalhswvcNpAReqVSWFUxfcpQhnDtImJR0xl23AAhObWlf-Xhy0]--></g></svg>
