<?xml version="1.0" encoding="us-ascii" standalone="no"?><svg xmlns="http://www.w3.org/2000/svg" xmlns:xlink="http://www.w3.org/1999/xlink" contentStyleType="text/css" height="1141px" preserveAspectRatio="none" style="width:872px;height:1141px;background:#FFFFFF;" version="1.1" viewBox="0 0 872 1141" width="872px" zoomAndPan="magnify"><defs/><g><ellipse cx="310" cy="20" fill="#222222" rx="10" ry="10" style="stroke:#222222;stroke-width:1.0;"/><rect fill="#F1F1F1" height="37.3761" rx="12.5" ry="12.5" style="stroke:#181818;stroke-width:0.5;" width="144" x="238" y="50"/><text fill="#000000" font-family="sans-serif" font-size="12" lengthAdjust="spacing" textLength="124" x="248" y="73.9201">MachineSet controller</text><rect fill="#F1F1F1" height="37.3761" rx="12.5" ry="12.5" style="stroke:#181818;stroke-width:0.5;" width="291" x="164.5" y="151.3761"/><text fill="#000000" font-family="sans-serif" font-size="12" lengthAdjust="spacing" textLength="271" x="174.5" y="175.2962">MachineSet controller enqueues a Reconcile call</text><rect fill="#F1F1F1" height="37.3761" rx="12.5" ry="12.5" style="stroke:#181818;stroke-width:0.5;" width="216" x="202" y="208.7522"/><text fill="#000000" font-family="sans-serif" font-size="12" lengthAdjust="spacing" textLength="196" x="212" y="232.6723">List machines specified by selector</text><polygon fill="#F1F1F1" points="163,310.1284,457,310.1284,469,322.1284,457,334.1284,163,334.1284,151,322.1284,163,310.1284" style="stroke:#181818;stroke-width:0.5;"/><text fill="#000000" font-family="sans-serif" font-size="11" lengthAdjust="spacing" textLength="294" x="163" y="326.9243">MachineSet.Spec.Version &gt; bootstrapConfig.spec.version</text><text fill="#000000" font-family="sans-serif" font-size="11" lengthAdjust="spacing" textLength="17" x="134" y="318.9604">yes</text><text fill="#000000" font-family="sans-serif" font-size="11" lengthAdjust="spacing" textLength="347" x="469" y="318.9604">MachineSet.Spec.Version &lt; bootstrapConfig.spec.version) then (yes</text><rect fill="#FFFFE0" height="37.3761" rx="12.5" ry="12.5" style="stroke:#181818;stroke-width:0.5;" width="260" x="11" y="344.1284"/><text fill="#000000" font-family="sans-serif" font-size="12" lengthAdjust="spacing" textLength="240" x="21" y="368.0485">reconcile new k8s version bootstrapConfig</text><rect fill="#FFFFE0" height="37.3761" rx="12.5" ry="12.5" style="stroke:#181818;stroke-width:0.5;" width="253" x="352.5" y="344.1284"/><text fill="#000000" font-family="sans-serif" font-size="12" lengthAdjust="spacing" textLength="233" x="362.5" y="368.0485">reconcile old k8s version bootstrapConfig</text><polygon fill="#F1F1F1" points="310,387.5045,322,399.5045,310,411.5045,298,399.5045,310,387.5045" style="stroke:#181818;stroke-width:0.5;"/><rect fill="#ADD8E6" height="37.3761" rx="12.5" ry="12.5" style="stroke:#181818;stroke-width:0.5;" width="104" x="258" y="525.4684"/><text fill="#000000" font-family="sans-serif" font-size="12" lengthAdjust="spacing" textLength="84" x="268" y="549.3885">Adopt machine</text><polygon fill="#F1F1F1" points="243.5,475.5045,376.5,475.5045,388.5,487.5045,376.5,499.5045,243.5,499.5045,231.5,487.5045,243.5,475.5045" style="stroke:#181818;stroke-width:0.5;"/><text fill="#000000" font-family="sans-serif" font-size="11" lengthAdjust="spacing" textLength="17" x="314" y="512.2644">yes</text><text fill="#000000" font-family="sans-serif" font-size="11" lengthAdjust="spacing" textLength="133" x="243.5" y="492.3005">Machine has no controller</text><polygon fill="#F1F1F1" points="310,582.8445,322,594.8445,310,606.8445,298,594.8445,310,582.8445" style="stroke:#181818;stroke-width:0.5;"/><polygon fill="#F1F1F1" points="310,431.5045,322,443.5045,310,455.5045,298,443.5045,310,431.5045" style="stroke:#181818;stroke-width:0.5;"/><polygon fill="#F1F1F1" points="271,626.8445,349,626.8445,361,638.8445,349,650.8445,271,650.8445,259,638.8445,271,626.8445" style="stroke:#181818;stroke-width:0.5;"/><text fill="#000000" font-family="sans-serif" font-size="11" lengthAdjust="spacing" textLength="78" x="271" y="643.6405">More machines</text><text fill="#000000" font-family="sans-serif" font-size="11" lengthAdjust="spacing" textLength="17" x="361" y="635.6766">yes</text><rect fill="#F1F1F1" height="37.3761" rx="12.5" ry="12.5" style="stroke:#181818;stroke-width:0.5;" width="295" x="162.5" y="670.8445"/><text fill="#000000" font-family="sans-serif" font-size="12" lengthAdjust="spacing" textLength="275" x="172.5" y="694.7646">Propagate in-place changes to existing Machines</text><polygon fill="#F1F1F1" points="164.5,728.2207,267.5,728.2207,279.5,740.2207,267.5,752.2207,164.5,752.2207,152.5,740.2207,164.5,728.2207" style="stroke:#181818;stroke-width:0.5;"/><text fill="#000000" font-family="sans-serif" font-size="11" lengthAdjust="spacing" textLength="17" x="220" y="764.9806">yes</text><text fill="#000000" font-family="sans-serif" font-size="11" lengthAdjust="spacing" textLength="103" x="164.5" y="745.0166">Not enough replicas</text><rect fill="#ADD8E6" height="37.3761" rx="12.5" ry="12.5" style="stroke:#181818;stroke-width:0.5;" width="125" x="153.5" y="786.4806"/><text fill="#000000" font-family="sans-serif" font-size="12" lengthAdjust="spacing" textLength="105" x="163.5" y="810.4007">Boot new machine</text><polygon fill="#F1F1F1" points="311.5,728.2207,405.5,728.2207,417.5,740.2207,405.5,752.2207,311.5,752.2207,299.5,740.2207,311.5,728.2207" style="stroke:#181818;stroke-width:0.5;"/><text fill="#000000" font-family="sans-serif" font-size="11" lengthAdjust="spacing" textLength="17" x="362.5" y="764.9806">yes</text><text fill="#000000" font-family="sans-serif" font-size="11" lengthAdjust="spacing" textLength="94" x="311.5" y="745.0166">Too many replicas</text><rect fill="#ADD8E6" height="37.3761" rx="12.5" ry="12.5" style="stroke:#181818;stroke-width:0.5;" width="114" x="301.5" y="786.4806"/><text fill="#000000" font-family="sans-serif" font-size="12" lengthAdjust="spacing" textLength="94" x="311.5" y="810.4007">Delete machines</text><rect fill="#FFC0CB" height="37.3761" rx="12.5" ry="12.5" style="stroke:#181818;stroke-width:0.5;" width="112" x="254" y="913.8206"/><text fill="#000000" font-family="sans-serif" font-size="12" lengthAdjust="spacing" textLength="92" x="264" y="937.7407">Return Requeue</text><polygon fill="#F1F1F1" points="243,863.8567,377,863.8567,389,875.8567,377,887.8567,243,887.8567,231,875.8567,243,863.8567" style="stroke:#181818;stroke-width:0.5;"/><text fill="#000000" font-family="sans-serif" font-size="11" lengthAdjust="spacing" textLength="17" x="314" y="900.6166">yes</text><text fill="#000000" font-family="sans-serif" font-size="11" lengthAdjust="spacing" textLength="134" x="243" y="880.6527">Not all machines are ready</text><polygon fill="#F1F1F1" points="310,971.1968,322,983.1968,310,995.1968,298,983.1968,310,971.1968" style="stroke:#181818;stroke-width:0.5;"/><polygon fill="#F1F1F1" points="310,266.1284,322,278.1284,310,290.1284,298,278.1284,310,266.1284" style="stroke:#181818;stroke-width:0.5;"/><polygon fill="#F1F1F1" points="246,1015.1968,374,1015.1968,386,1027.1968,374,1039.1968,246,1039.1968,234,1027.1968,246,1015.1968" style="stroke:#181818;stroke-width:0.5;"/><text fill="#000000" font-family="sans-serif" font-size="11" lengthAdjust="spacing" textLength="128" x="246" y="1031.9927">Create returned Requeue</text><text fill="#000000" font-family="sans-serif" font-size="11" lengthAdjust="spacing" textLength="17" x="386" y="1024.0288">yes</text><ellipse cx="310" cy="1070.1968" fill="none" rx="11" ry="11" style="stroke:#222222;stroke-width:1.0;"/><ellipse cx="310" cy="1070.1968" fill="#222222" rx="6" ry="6" style="stroke:#111111;stroke-width:1.0;"/><polygon fill="#F1F1F1" points="310,107.3761,322,119.3761,310,131.3761,298,119.3761,310,107.3761" style="stroke:#181818;stroke-width:0.5;"/><line style="stroke:#181818;stroke-width:1.0;" x1="310" x2="310" y1="30" y2="50"/><polygon fill="#181818" points="306,40,310,50,314,40,310,44" style="stroke:#181818;stroke-width:1.0;"/><line style="stroke:#181818;stroke-width:1.0;" x1="310" x2="310" y1="188.7522" y2="208.7522"/><polygon fill="#181818" points="306,198.7522,310,208.7522,314,198.7522,310,202.7522" style="stroke:#181818;stroke-width:1.0;"/><line style="stroke:#181818;stroke-width:1.0;" x1="151" x2="141" y1="322.1284" y2="322.1284"/><line style="stroke:#181818;stroke-width:1.0;" x1="141" x2="141" y1="322.1284" y2="344.1284"/><polygon fill="#181818" points="137,334.1284,141,344.1284,145,334.1284,141,338.1284" style="stroke:#181818;stroke-width:1.0;"/><line style="stroke:#181818;stroke-width:1.0;" x1="469" x2="479" y1="322.1284" y2="322.1284"/><line style="stroke:#181818;stroke-width:1.0;" x1="479" x2="479" y1="322.1284" y2="344.1284"/><polygon fill="#181818" points="475,334.1284,479,344.1284,483,334.1284,479,338.1284" style="stroke:#181818;stroke-width:1.0;"/><line style="stroke:#181818;stroke-width:1.0;" x1="141" x2="141" y1="381.5045" y2="399.5045"/><line style="stroke:#181818;stroke-width:1.0;" x1="141" x2="298" y1="399.5045" y2="399.5045"/><polygon fill="#181818" points="288,395.5045,298,399.5045,288,403.5045,292,399.5045" style="stroke:#181818;stroke-width:1.0;"/><line style="stroke:#181818;stroke-width:1.0;" x1="479" x2="479" y1="381.5045" y2="399.5045"/><line style="stroke:#181818;stroke-width:1.0;" x1="479" x2="322" y1="399.5045" y2="399.5045"/><polygon fill="#181818" points="332,395.5045,322,399.5045,332,403.5045,328,399.5045" style="stroke:#181818;stroke-width:1.0;"/><line style="stroke:#181818;stroke-width:1.0;" x1="310" x2="310" y1="499.5045" y2="525.4684"/><polygon fill="#181818" points="306,515.4684,310,525.4684,314,515.4684,310,519.4684" style="stroke:#181818;stroke-width:1.0;"/><line style="stroke:#181818;stroke-width:1.0;" x1="388.5" x2="400.5" y1="487.5045" y2="487.5045"/><polygon fill="#181818" points="396.5,534.1565,400.5,544.1565,404.5,534.1565,400.5,538.1565" style="stroke:#181818;stroke-width:1.0;"/><line style="stroke:#181818;stroke-width:1.0;" x1="400.5" x2="400.5" y1="487.5045" y2="594.8445"/><line style="stroke:#181818;stroke-width:1.0;" x1="400.5" x2="322" y1="594.8445" y2="594.8445"/><polygon fill="#181818" points="332,590.8445,322,594.8445,332,598.8445,328,594.8445" style="stroke:#181818;stroke-width:1.0;"/><line style="stroke:#181818;stroke-width:1.0;" x1="310" x2="310" y1="562.8445" y2="582.8445"/><polygon fill="#181818" points="306,572.8445,310,582.8445,314,572.8445,310,576.8445" style="stroke:#181818;stroke-width:1.0;"/><line style="stroke:#181818;stroke-width:1.0;" x1="310" x2="310" y1="455.5045" y2="475.5045"/><polygon fill="#181818" points="306,465.5045,310,475.5045,314,465.5045,310,469.5045" style="stroke:#181818;stroke-width:1.0;"/><line style="stroke:#181818;stroke-width:1.0;" x1="361" x2="412.5" y1="638.8445" y2="638.8445"/><polygon fill="#181818" points="408.5,554.1565,412.5,544.1565,416.5,554.1565,412.5,550.1565" style="stroke:#181818;stroke-width:1.0;"/><line style="stroke:#181818;stroke-width:1.0;" x1="412.5" x2="412.5" y1="443.5045" y2="638.8445"/><line style="stroke:#181818;stroke-width:1.0;" x1="412.5" x2="322" y1="443.5045" y2="443.5045"/><polygon fill="#181818" points="332,439.5045,322,443.5045,332,447.5045,328,443.5045" style="stroke:#181818;stroke-width:1.0;"/><line style="stroke:#181818;stroke-width:1.0;" x1="310" x2="310" y1="606.8445" y2="626.8445"/><polygon fill="#181818" points="306,616.8445,310,626.8445,314,616.8445,310,620.8445" style="stroke:#181818;stroke-width:1.0;"/><line style="stroke:#181818;stroke-width:1.0;" x1="310" x2="310" y1="411.5045" y2="431.5045"/><polygon fill="#181818" points="306,421.5045,310,431.5045,314,421.5045,310,425.5045" style="stroke:#181818;stroke-width:1.0;"/><line style="stroke:#181818;stroke-width:1.0;" x1="310" x2="310" y1="650.8445" y2="670.8445"/><polygon fill="#181818" points="306,660.8445,310,670.8445,314,660.8445,310,664.8445" style="stroke:#181818;stroke-width:1.0;"/><line style="stroke:#181818;stroke-width:1.0;" x1="216" x2="216" y1="752.2207" y2="786.4806"/><polygon fill="#181818" points="212,776.4806,216,786.4806,220,776.4806,216,780.4806" style="stroke:#181818;stroke-width:1.0;"/><line style="stroke:#181818;stroke-width:1.0;" x1="216" x2="216" y1="823.8567" y2="843.8567"/><polygon fill="#181818" points="212,833.8567,216,843.8567,220,833.8567,216,837.8567" style="stroke:#181818;stroke-width:1.0;"/><line style="stroke:#181818;stroke-width:1.0;" x1="358.5" x2="358.5" y1="752.2207" y2="786.4806"/><polygon fill="#181818" points="354.5,776.4806,358.5,786.4806,362.5,776.4806,358.5,780.4806" style="stroke:#181818;stroke-width:1.0;"/><line style="stroke:#181818;stroke-width:1.0;" x1="358.5" x2="358.5" y1="823.8567" y2="843.8567"/><polygon fill="#181818" points="354.5,833.8567,358.5,843.8567,362.5,833.8567,358.5,837.8567" style="stroke:#181818;stroke-width:1.0;"/><line style="stroke:#181818;stroke-width:1.0;" x1="279.5" x2="299.5" y1="740.2207" y2="740.2207"/><polygon fill="#181818" points="289.5,736.2207,299.5,740.2207,289.5,744.2207,293.5,740.2207" style="stroke:#181818;stroke-width:1.0;"/><line style="stroke:#181818;stroke-width:1.0;" x1="310" x2="310" y1="708.2207" y2="713.2207"/><line style="stroke:#181818;stroke-width:1.0;" x1="310" x2="216" y1="713.2207" y2="713.2207"/><line style="stroke:#181818;stroke-width:1.0;" x1="216" x2="216" y1="713.2207" y2="728.2207"/><polygon fill="#181818" points="212,718.2207,216,728.2207,220,718.2207,216,722.2207" style="stroke:#181818;stroke-width:1.0;"/><line style="stroke:#181818;stroke-width:1.0;" x1="417.5" x2="452.5" y1="740.2207" y2="740.2207"/><line style="stroke:#181818;stroke-width:1.0;" x1="452.5" x2="452.5" y1="740.2207" y2="843.8567"/><polygon fill="#181818" points="448.5,833.8567,452.5,843.8567,456.5,833.8567,452.5,837.8567" style="stroke:#181818;stroke-width:1.0;"/><line style="stroke:#181818;stroke-width:1.0;" x1="216" x2="452.5" y1="843.8567" y2="843.8567"/><line style="stroke:#181818;stroke-width:1.0;" x1="310" x2="310" y1="887.8567" y2="913.8206"/><polygon fill="#181818" points="306,903.8206,310,913.8206,314,903.8206,310,907.8206" style="stroke:#181818;stroke-width:1.0;"/><line style="stroke:#181818;stroke-width:1.0;" x1="389" x2="401" y1="875.8567" y2="875.8567"/><polygon fill="#181818" points="397,922.5087,401,932.5087,405,922.5087,401,926.5087" style="stroke:#181818;stroke-width:1.0;"/><line style="stroke:#181818;stroke-width:1.0;" x1="401" x2="401" y1="875.8567" y2="983.1968"/><line style="stroke:#181818;stroke-width:1.0;" x1="401" x2="322" y1="983.1968" y2="983.1968"/><polygon fill="#181818" points="332,979.1968,322,983.1968,332,987.1968,328,983.1968" style="stroke:#181818;stroke-width:1.0;"/><line style="stroke:#181818;stroke-width:1.0;" x1="310" x2="310" y1="951.1968" y2="971.1968"/><polygon fill="#181818" points="306,961.1968,310,971.1968,314,961.1968,310,965.1968" style="stroke:#181818;stroke-width:1.0;"/><line style="stroke:#181818;stroke-width:1.0;" x1="310" x2="310" y1="843.8567" y2="863.8567"/><polygon fill="#181818" points="306,853.8567,310,863.8567,314,853.8567,310,857.8567" style="stroke:#181818;stroke-width:1.0;"/><line style="stroke:#181818;stroke-width:1.0;" x1="310" x2="310" y1="290.1284" y2="310.1284"/><polygon fill="#181818" points="306,300.1284,310,310.1284,314,300.1284,310,304.1284" style="stroke:#181818;stroke-width:1.0;"/><line style="stroke:#181818;stroke-width:1.0;" x1="386" x2="828" y1="1027.1968" y2="1027.1968"/><polygon fill="#181818" points="824,675.4965,828,665.4965,832,675.4965,828,671.4965" style="stroke:#181818;stroke-width:1.0;"/><line style="stroke:#181818;stroke-width:1.0;" x1="828" x2="828" y1="278.1284" y2="1027.1968"/><line style="stroke:#181818;stroke-width:1.0;" x1="828" x2="322" y1="278.1284" y2="278.1284"/><polygon fill="#181818" points="332,274.1284,322,278.1284,332,282.1284,328,278.1284" style="stroke:#181818;stroke-width:1.0;"/><line style="stroke:#181818;stroke-width:1.0;" x1="310" x2="310" y1="995.1968" y2="1015.1968"/><polygon fill="#181818" points="306,1005.1968,310,1015.1968,314,1005.1968,310,1009.1968" style="stroke:#181818;stroke-width:1.0;"/><line style="stroke:#181818;stroke-width:1.0;" x1="310" x2="310" y1="246.1284" y2="266.1284"/><polygon fill="#181818" points="306,256.1284,310,266.1284,314,256.1284,310,260.1284" style="stroke:#181818;stroke-width:1.0;"/><line style="stroke:#181818;stroke-width:1.0;" x1="310" x2="310" y1="1039.1968" y2="1059.1968"/><polygon fill="#181818" points="306,1049.1968,310,1059.1968,314,1049.1968,310,1053.1968" style="stroke:#181818;stroke-width:1.0;"/><line style="stroke:#181818;stroke-width:1.0;" x1="310" x2="310" y1="131.3761" y2="151.3761"/><polygon fill="#181818" points="306,141.3761,310,151.3761,314,141.3761,310,145.3761" style="stroke:#181818;stroke-width:1.0;"/><line style="stroke:#181818;stroke-width:1.0;" x1="310" x2="846" y1="1129.1968" y2="1129.1968"/><polygon fill="#181818" points="842,640.6204,846,630.6204,850,640.6204,846,636.6204" style="stroke:#181818;stroke-width:1.0;"/><line style="stroke:#181818;stroke-width:1.0;" x1="846" x2="846" y1="119.3761" y2="1129.1968"/><line style="stroke:#181818;stroke-width:1.0;" x1="846" x2="322" y1="119.3761" y2="119.3761"/><polygon fill="#181818" points="332,115.3761,322,119.3761,332,123.3761,328,119.3761" style="stroke:#181818;stroke-width:1.0;"/><line style="stroke:#181818;stroke-width:1.0;" x1="310" x2="310" y1="87.3761" y2="107.3761"/><polygon fill="#181818" points="306,97.3761,310,107.3761,314,97.3761,310,101.3761" style="stroke:#181818;stroke-width:1.0;"/><!--SRC=[hP8nJyD038Nt_0fBBEr0PfGW95h65bKjGcAy9avowd4EPuUIVyzT6f92Mwa36I_sUv_zpAASf56oL5cbBMvG82ChZen1bqQHmngLH03dAm3jHuCDCYXOet_Fj478b35fw5be5dW_D39mZPakDEQmRO7HO2RaGjrW0g0Bc8nEySQtnA_eM9E51zWI2OjJzPnieSiuACQVXzzJa0ejJ5haQISLlfk5BYjvGsDedxW1qE8UTdSCVUjVtRJhHyDu6UR-ts38v5V0s5mN5rS5bMAmT1JC6O23_Smqc3pcL0_1d3E0VHNG9ajoE0Gu1Ss3Oh9oLAjI2OAsjxLHcS-zKhRqGGi1VldejIsX9-JW4eYVIRmNDMKLh8pE59-m7f7E_3Awk8vWGp11weN8FzlsAg4dVsyopjBfz2F_OFch7OzL-S4Tghmz5LrfkqlMA8sp_kYx-n_bVkzlxYKa28LYV_Xz-T4cMQXEesy0]--></g></svg>
