<?xml version="1.0" encoding="us-ascii" standalone="no"?><svg xmlns="http://www.w3.org/2000/svg" xmlns:xlink="http://www.w3.org/1999/xlink" contentStyleType="text/css" height="1232px" preserveAspectRatio="none" style="width:1090px;height:1232px;background:#FFFFFF;" version="1.1" viewBox="0 0 1090 1232" width="1090px" zoomAndPan="magnify"><defs/><g><ellipse cx="542" cy="20" fill="#222222" rx="10" ry="10" style="stroke:#222222;stroke-width:1.0;"/><rect fill="#F1F1F1" height="37.3761" rx="12.5" ry="12.5" style="stroke:#181818;stroke-width:0.5;" width="144" x="470" y="50"/><text fill="#000000" font-family="sans-serif" font-size="12" lengthAdjust="spacing" textLength="124" x="480" y="73.9201">MachineSet controller</text><rect fill="#F1F1F1" height="37.3761" rx="12.5" ry="12.5" style="stroke:#181818;stroke-width:0.5;" width="291" x="396.5" y="151.3761"/><text fill="#000000" font-family="sans-serif" font-size="12" lengthAdjust="spacing" textLength="271" x="406.5" y="175.2962">MachineSet controller enqueues a Reconcile call</text><rect fill="#F1F1F1" height="37.3761" rx="12.5" ry="12.5" style="stroke:#181818;stroke-width:0.5;" width="216" x="434" y="208.7522"/><text fill="#000000" font-family="sans-serif" font-size="12" lengthAdjust="spacing" textLength="196" x="444" y="232.6723">List machines specified by selector</text><rect fill="#F1F1F1" height="37.3761" rx="12.5" ry="12.5" style="stroke:#181818;stroke-width:0.5;" width="100" x="492" y="310.1284"/><text fill="#000000" font-family="sans-serif" font-size="12" lengthAdjust="spacing" textLength="80" x="502" y="334.0485">Need changes</text><polygon fill="#F1F1F1" points="32,367.5045,326,367.5045,338,379.5045,326,391.5045,32,391.5045,20,379.5045,32,367.5045" style="stroke:#181818;stroke-width:0.5;"/><text fill="#000000" font-family="sans-serif" font-size="11" lengthAdjust="spacing" textLength="17" x="183" y="404.2644">yes</text><text fill="#000000" font-family="sans-serif" font-size="11" lengthAdjust="spacing" textLength="294" x="32" y="384.3005">MachineSet.Spec.Version &gt; bootstrapConfig.spec.version</text><rect fill="#FFFFE0" height="37.3761" rx="12.5" ry="12.5" style="stroke:#181818;stroke-width:0.5;" width="260" x="49" y="425.7644"/><text fill="#000000" font-family="sans-serif" font-size="12" lengthAdjust="spacing" textLength="240" x="59" y="449.6845">reconcile new k8s version bootstrapConfig</text><polygon fill="#F1F1F1" points="370,367.5045,664,367.5045,676,379.5045,664,391.5045,370,391.5045,358,379.5045,370,367.5045" style="stroke:#181818;stroke-width:0.5;"/><text fill="#000000" font-family="sans-serif" font-size="11" lengthAdjust="spacing" textLength="17" x="521" y="404.2644">yes</text><text fill="#000000" font-family="sans-serif" font-size="11" lengthAdjust="spacing" textLength="294" x="370" y="384.3005">MachineSet.Spec.Version = bootstrapConfig.spec.version</text><rect fill="#FFFFE0" height="37.3761" rx="12.5" ry="12.5" style="stroke:#181818;stroke-width:0.5;" width="95" x="469.5" y="425.7644"/><text fill="#000000" font-family="sans-serif" font-size="12" lengthAdjust="spacing" textLength="75" x="479.5" y="449.6845">nothing to do</text><polygon fill="#F1F1F1" points="708,367.5045,1002,367.5045,1014,379.5045,1002,391.5045,708,391.5045,696,379.5045,708,367.5045" style="stroke:#181818;stroke-width:0.5;"/><text fill="#000000" font-family="sans-serif" font-size="11" lengthAdjust="spacing" textLength="17" x="859" y="404.2644">yes</text><text fill="#000000" font-family="sans-serif" font-size="11" lengthAdjust="spacing" textLength="294" x="708" y="384.3005">MachineSet.Spec.Version &lt; bootstrapConfig.spec.version</text><rect fill="#FFFFE0" height="37.3761" rx="12.5" ry="12.5" style="stroke:#181818;stroke-width:0.5;" width="253" x="728.5" y="425.7644"/><text fill="#000000" font-family="sans-serif" font-size="12" lengthAdjust="spacing" textLength="233" x="738.5" y="449.6845">reconcile old k8s version bootstrapConfig</text><rect fill="#ADD8E6" height="37.3761" rx="12.5" ry="12.5" style="stroke:#181818;stroke-width:0.5;" width="104" x="490" y="597.1045"/><text fill="#000000" font-family="sans-serif" font-size="12" lengthAdjust="spacing" textLength="84" x="500" y="621.0246">Adopt machine</text><polygon fill="#F1F1F1" points="475.5,547.1405,608.5,547.1405,620.5,559.1405,608.5,571.1405,475.5,571.1405,463.5,559.1405,475.5,547.1405" style="stroke:#181818;stroke-width:0.5;"/><text fill="#000000" font-family="sans-serif" font-size="11" lengthAdjust="spacing" textLength="17" x="546" y="583.9004">yes</text><text fill="#000000" font-family="sans-serif" font-size="11" lengthAdjust="spacing" textLength="133" x="475.5" y="563.9365">Machine has no controller</text><polygon fill="#F1F1F1" points="542,654.4806,554,666.4806,542,678.4806,530,666.4806,542,654.4806" style="stroke:#181818;stroke-width:0.5;"/><polygon fill="#F1F1F1" points="542,503.1405,554,515.1405,542,527.1405,530,515.1405,542,503.1405" style="stroke:#181818;stroke-width:0.5;"/><polygon fill="#F1F1F1" points="503,718.4806,581,718.4806,593,730.4806,581,742.4806,503,742.4806,491,730.4806,503,718.4806" style="stroke:#181818;stroke-width:0.5;"/><text fill="#000000" font-family="sans-serif" font-size="11" lengthAdjust="spacing" textLength="78" x="503" y="735.2765">More machines</text><text fill="#000000" font-family="sans-serif" font-size="11" lengthAdjust="spacing" textLength="17" x="593" y="727.3126">yes</text><rect fill="#F1F1F1" height="37.3761" rx="12.5" ry="12.5" style="stroke:#181818;stroke-width:0.5;" width="295" x="394.5" y="762.4806"/><text fill="#000000" font-family="sans-serif" font-size="12" lengthAdjust="spacing" textLength="275" x="404.5" y="786.4007">Propagate in-place changes to existing Machines</text><polygon fill="#F1F1F1" points="396.5,819.8567,499.5,819.8567,511.5,831.8567,499.5,843.8567,396.5,843.8567,384.5,831.8567,396.5,819.8567" style="stroke:#181818;stroke-width:0.5;"/><text fill="#000000" font-family="sans-serif" font-size="11" lengthAdjust="spacing" textLength="17" x="452" y="856.6166">yes</text><text fill="#000000" font-family="sans-serif" font-size="11" lengthAdjust="spacing" textLength="103" x="396.5" y="836.6527">Not enough replicas</text><rect fill="#ADD8E6" height="37.3761" rx="12.5" ry="12.5" style="stroke:#181818;stroke-width:0.5;" width="125" x="385.5" y="878.1166"/><text fill="#000000" font-family="sans-serif" font-size="12" lengthAdjust="spacing" textLength="105" x="395.5" y="902.0367">Boot new machine</text><polygon fill="#F1F1F1" points="543.5,819.8567,637.5,819.8567,649.5,831.8567,637.5,843.8567,543.5,843.8567,531.5,831.8567,543.5,819.8567" style="stroke:#181818;stroke-width:0.5;"/><text fill="#000000" font-family="sans-serif" font-size="11" lengthAdjust="spacing" textLength="17" x="594.5" y="856.6166">yes</text><text fill="#000000" font-family="sans-serif" font-size="11" lengthAdjust="spacing" textLength="94" x="543.5" y="836.6527">Too many replicas</text><rect fill="#ADD8E6" height="37.3761" rx="12.5" ry="12.5" style="stroke:#181818;stroke-width:0.5;" width="114" x="533.5" y="878.1166"/><text fill="#000000" font-family="sans-serif" font-size="12" lengthAdjust="spacing" textLength="94" x="543.5" y="902.0367">Delete machines</text><rect fill="#FFC0CB" height="37.3761" rx="12.5" ry="12.5" style="stroke:#181818;stroke-width:0.5;" width="112" x="486" y="1005.4567"/><text fill="#000000" font-family="sans-serif" font-size="12" lengthAdjust="spacing" textLength="92" x="496" y="1029.3768">Return Requeue</text><polygon fill="#F1F1F1" points="475,955.4927,609,955.4927,621,967.4927,609,979.4927,475,979.4927,463,967.4927,475,955.4927" style="stroke:#181818;stroke-width:0.5;"/><text fill="#000000" font-family="sans-serif" font-size="11" lengthAdjust="spacing" textLength="17" x="546" y="992.2526">yes</text><text fill="#000000" font-family="sans-serif" font-size="11" lengthAdjust="spacing" textLength="134" x="475" y="972.2887">Not all machines are ready</text><polygon fill="#F1F1F1" points="542,1062.8328,554,1074.8328,542,1086.8328,530,1074.8328,542,1062.8328" style="stroke:#181818;stroke-width:0.5;"/><polygon fill="#F1F1F1" points="542,266.1284,554,278.1284,542,290.1284,530,278.1284,542,266.1284" style="stroke:#181818;stroke-width:0.5;"/><polygon fill="#F1F1F1" points="478,1106.8328,606,1106.8328,618,1118.8328,606,1130.8328,478,1130.8328,466,1118.8328,478,1106.8328" style="stroke:#181818;stroke-width:0.5;"/><text fill="#000000" font-family="sans-serif" font-size="11" lengthAdjust="spacing" textLength="128" x="478" y="1123.6287">Create returned Requeue</text><text fill="#000000" font-family="sans-serif" font-size="11" lengthAdjust="spacing" textLength="17" x="618" y="1115.6648">yes</text><ellipse cx="542" cy="1161.8328" fill="none" rx="11" ry="11" style="stroke:#222222;stroke-width:1.0;"/><ellipse cx="542" cy="1161.8328" fill="#222222" rx="6" ry="6" style="stroke:#111111;stroke-width:1.0;"/><polygon fill="#F1F1F1" points="542,107.3761,554,119.3761,542,131.3761,530,119.3761,542,107.3761" style="stroke:#181818;stroke-width:0.5;"/><line style="stroke:#181818;stroke-width:1.0;" x1="542" x2="542" y1="30" y2="50"/><polygon fill="#181818" points="538,40,542,50,546,40,542,44" style="stroke:#181818;stroke-width:1.0;"/><line style="stroke:#181818;stroke-width:1.0;" x1="542" x2="542" y1="188.7522" y2="208.7522"/><polygon fill="#181818" points="538,198.7522,542,208.7522,546,198.7522,542,202.7522" style="stroke:#181818;stroke-width:1.0;"/><line style="stroke:#181818;stroke-width:1.0;" x1="179" x2="179" y1="391.5045" y2="425.7644"/><polygon fill="#181818" points="175,415.7644,179,425.7644,183,415.7644,179,419.7644" style="stroke:#181818;stroke-width:1.0;"/><line style="stroke:#181818;stroke-width:1.0;" x1="179" x2="179" y1="463.1405" y2="483.1405"/><polygon fill="#181818" points="175,473.1405,179,483.1405,183,473.1405,179,477.1405" style="stroke:#181818;stroke-width:1.0;"/><line style="stroke:#181818;stroke-width:1.0;" x1="517" x2="517" y1="391.5045" y2="425.7644"/><polygon fill="#181818" points="513,415.7644,517,425.7644,521,415.7644,517,419.7644" style="stroke:#181818;stroke-width:1.0;"/><line style="stroke:#181818;stroke-width:1.0;" x1="517" x2="517" y1="463.1405" y2="483.1405"/><polygon fill="#181818" points="513,473.1405,517,483.1405,521,473.1405,517,477.1405" style="stroke:#181818;stroke-width:1.0;"/><line style="stroke:#181818;stroke-width:1.0;" x1="855" x2="855" y1="391.5045" y2="425.7644"/><polygon fill="#181818" points="851,415.7644,855,425.7644,859,415.7644,855,419.7644" style="stroke:#181818;stroke-width:1.0;"/><line style="stroke:#181818;stroke-width:1.0;" x1="855" x2="855" y1="463.1405" y2="483.1405"/><polygon fill="#181818" points="851,473.1405,855,483.1405,859,473.1405,855,477.1405" style="stroke:#181818;stroke-width:1.0;"/><line style="stroke:#181818;stroke-width:1.0;" x1="338" x2="358" y1="379.5045" y2="379.5045"/><polygon fill="#181818" points="348,375.5045,358,379.5045,348,383.5045,352,379.5045" style="stroke:#181818;stroke-width:1.0;"/><line style="stroke:#181818;stroke-width:1.0;" x1="676" x2="696" y1="379.5045" y2="379.5045"/><polygon fill="#181818" points="686,375.5045,696,379.5045,686,383.5045,690,379.5045" style="stroke:#181818;stroke-width:1.0;"/><line style="stroke:#181818;stroke-width:1.0;" x1="542" x2="542" y1="347.5045" y2="352.5045"/><line style="stroke:#181818;stroke-width:1.0;" x1="542" x2="179" y1="352.5045" y2="352.5045"/><line style="stroke:#181818;stroke-width:1.0;" x1="179" x2="179" y1="352.5045" y2="367.5045"/><polygon fill="#181818" points="175,357.5045,179,367.5045,183,357.5045,179,361.5045" style="stroke:#181818;stroke-width:1.0;"/><line style="stroke:#181818;stroke-width:1.0;" x1="1014" x2="1028" y1="379.5045" y2="379.5045"/><line style="stroke:#181818;stroke-width:1.0;" x1="1028" x2="1028" y1="379.5045" y2="483.1405"/><polygon fill="#181818" points="1024,473.1405,1028,483.1405,1032,473.1405,1028,477.1405" style="stroke:#181818;stroke-width:1.0;"/><line style="stroke:#181818;stroke-width:1.0;" x1="179" x2="1028" y1="483.1405" y2="483.1405"/><line style="stroke:#181818;stroke-width:1.0;" x1="542" x2="542" y1="571.1405" y2="597.1045"/><polygon fill="#181818" points="538,587.1045,542,597.1045,546,587.1045,542,591.1045" style="stroke:#181818;stroke-width:1.0;"/><line style="stroke:#181818;stroke-width:1.0;" x1="620.5" x2="632.5" y1="559.1405" y2="559.1405"/><polygon fill="#181818" points="628.5,605.7925,632.5,615.7925,636.5,605.7925,632.5,609.7925" style="stroke:#181818;stroke-width:1.0;"/><line style="stroke:#181818;stroke-width:1.0;" x1="632.5" x2="632.5" y1="559.1405" y2="666.4806"/><line style="stroke:#181818;stroke-width:1.0;" x1="632.5" x2="554" y1="666.4806" y2="666.4806"/><polygon fill="#181818" points="564,662.4806,554,666.4806,564,670.4806,560,666.4806" style="stroke:#181818;stroke-width:1.0;"/><line style="stroke:#181818;stroke-width:1.0;" x1="542" x2="542" y1="634.4806" y2="654.4806"/><polygon fill="#181818" points="538,644.4806,542,654.4806,546,644.4806,542,648.4806" style="stroke:#181818;stroke-width:1.0;"/><line style="stroke:#181818;stroke-width:1.0;" x1="542" x2="542" y1="527.1405" y2="547.1405"/><polygon fill="#181818" points="538,537.1405,542,547.1405,546,537.1405,542,541.1405" style="stroke:#181818;stroke-width:1.0;"/><line style="stroke:#181818;stroke-width:1.0;" x1="593" x2="644.5" y1="730.4806" y2="730.4806"/><polygon fill="#181818" points="640.5,625.7925,644.5,615.7925,648.5,625.7925,644.5,621.7925" style="stroke:#181818;stroke-width:1.0;"/><line style="stroke:#181818;stroke-width:1.0;" x1="644.5" x2="644.5" y1="515.1405" y2="730.4806"/><line style="stroke:#181818;stroke-width:1.0;" x1="644.5" x2="554" y1="515.1405" y2="515.1405"/><polygon fill="#181818" points="564,511.1405,554,515.1405,564,519.1405,560,515.1405" style="stroke:#181818;stroke-width:1.0;"/><line style="stroke:#181818;stroke-width:1.0;" x1="542" x2="542" y1="678.4806" y2="718.4806"/><polygon fill="#181818" points="538,708.4806,542,718.4806,546,708.4806,542,712.4806" style="stroke:#181818;stroke-width:1.0;"/><line style="stroke:#181818;stroke-width:1.0;" x1="542" x2="542" y1="483.1405" y2="503.1405"/><polygon fill="#181818" points="538,493.1405,542,503.1405,546,493.1405,542,497.1405" style="stroke:#181818;stroke-width:1.0;"/><line style="stroke:#181818;stroke-width:1.0;" x1="542" x2="542" y1="742.4806" y2="762.4806"/><polygon fill="#181818" points="538,752.4806,542,762.4806,546,752.4806,542,756.4806" style="stroke:#181818;stroke-width:1.0;"/><line style="stroke:#181818;stroke-width:1.0;" x1="448" x2="448" y1="843.8567" y2="878.1166"/><polygon fill="#181818" points="444,868.1166,448,878.1166,452,868.1166,448,872.1166" style="stroke:#181818;stroke-width:1.0;"/><line style="stroke:#181818;stroke-width:1.0;" x1="448" x2="448" y1="915.4927" y2="935.4927"/><polygon fill="#181818" points="444,925.4927,448,935.4927,452,925.4927,448,929.4927" style="stroke:#181818;stroke-width:1.0;"/><line style="stroke:#181818;stroke-width:1.0;" x1="590.5" x2="590.5" y1="843.8567" y2="878.1166"/><polygon fill="#181818" points="586.5,868.1166,590.5,878.1166,594.5,868.1166,590.5,872.1166" style="stroke:#181818;stroke-width:1.0;"/><line style="stroke:#181818;stroke-width:1.0;" x1="590.5" x2="590.5" y1="915.4927" y2="935.4927"/><polygon fill="#181818" points="586.5,925.4927,590.5,935.4927,594.5,925.4927,590.5,929.4927" style="stroke:#181818;stroke-width:1.0;"/><line style="stroke:#181818;stroke-width:1.0;" x1="511.5" x2="531.5" y1="831.8567" y2="831.8567"/><polygon fill="#181818" points="521.5,827.8567,531.5,831.8567,521.5,835.8567,525.5,831.8567" style="stroke:#181818;stroke-width:1.0;"/><line style="stroke:#181818;stroke-width:1.0;" x1="542" x2="542" y1="799.8567" y2="804.8567"/><line style="stroke:#181818;stroke-width:1.0;" x1="542" x2="448" y1="804.8567" y2="804.8567"/><line style="stroke:#181818;stroke-width:1.0;" x1="448" x2="448" y1="804.8567" y2="819.8567"/><polygon fill="#181818" points="444,809.8567,448,819.8567,452,809.8567,448,813.8567" style="stroke:#181818;stroke-width:1.0;"/><line style="stroke:#181818;stroke-width:1.0;" x1="649.5" x2="684.5" y1="831.8567" y2="831.8567"/><line style="stroke:#181818;stroke-width:1.0;" x1="684.5" x2="684.5" y1="831.8567" y2="935.4927"/><polygon fill="#181818" points="680.5,925.4927,684.5,935.4927,688.5,925.4927,684.5,929.4927" style="stroke:#181818;stroke-width:1.0;"/><line style="stroke:#181818;stroke-width:1.0;" x1="448" x2="684.5" y1="935.4927" y2="935.4927"/><line style="stroke:#181818;stroke-width:1.0;" x1="542" x2="542" y1="979.4927" y2="1005.4567"/><polygon fill="#181818" points="538,995.4567,542,1005.4567,546,995.4567,542,999.4567" style="stroke:#181818;stroke-width:1.0;"/><line style="stroke:#181818;stroke-width:1.0;" x1="621" x2="633" y1="967.4927" y2="967.4927"/><polygon fill="#181818" points="629,1014.1447,633,1024.1447,637,1014.1447,633,1018.1447" style="stroke:#181818;stroke-width:1.0;"/><line style="stroke:#181818;stroke-width:1.0;" x1="633" x2="633" y1="967.4927" y2="1074.8328"/><line style="stroke:#181818;stroke-width:1.0;" x1="633" x2="554" y1="1074.8328" y2="1074.8328"/><polygon fill="#181818" points="564,1070.8328,554,1074.8328,564,1078.8328,560,1074.8328" style="stroke:#181818;stroke-width:1.0;"/><line style="stroke:#181818;stroke-width:1.0;" x1="542" x2="542" y1="1042.8328" y2="1062.8328"/><polygon fill="#181818" points="538,1052.8328,542,1062.8328,546,1052.8328,542,1056.8328" style="stroke:#181818;stroke-width:1.0;"/><line style="stroke:#181818;stroke-width:1.0;" x1="542" x2="542" y1="935.4927" y2="955.4927"/><polygon fill="#181818" points="538,945.4927,542,955.4927,546,945.4927,542,949.4927" style="stroke:#181818;stroke-width:1.0;"/><line style="stroke:#181818;stroke-width:1.0;" x1="542" x2="542" y1="290.1284" y2="310.1284"/><polygon fill="#181818" points="538,300.1284,542,310.1284,546,300.1284,542,304.1284" style="stroke:#181818;stroke-width:1.0;"/><line style="stroke:#181818;stroke-width:1.0;" x1="618" x2="1046" y1="1118.8328" y2="1118.8328"/><polygon fill="#181818" points="1042,698.4806,1046,688.4806,1050,698.4806,1046,694.4806" style="stroke:#181818;stroke-width:1.0;"/><line style="stroke:#181818;stroke-width:1.0;" x1="1046" x2="1046" y1="278.1284" y2="1118.8328"/><line style="stroke:#181818;stroke-width:1.0;" x1="1046" x2="554" y1="278.1284" y2="278.1284"/><polygon fill="#181818" points="564,274.1284,554,278.1284,564,282.1284,560,278.1284" style="stroke:#181818;stroke-width:1.0;"/><line style="stroke:#181818;stroke-width:1.0;" x1="542" x2="542" y1="1086.8328" y2="1106.8328"/><polygon fill="#181818" points="538,1096.8328,542,1106.8328,546,1096.8328,542,1100.8328" style="stroke:#181818;stroke-width:1.0;"/><line style="stroke:#181818;stroke-width:1.0;" x1="542" x2="542" y1="246.1284" y2="266.1284"/><polygon fill="#181818" points="538,256.1284,542,266.1284,546,256.1284,542,260.1284" style="stroke:#181818;stroke-width:1.0;"/><line style="stroke:#181818;stroke-width:1.0;" x1="542" x2="542" y1="1130.8328" y2="1150.8328"/><polygon fill="#181818" points="538,1140.8328,542,1150.8328,546,1140.8328,542,1144.8328" style="stroke:#181818;stroke-width:1.0;"/><line style="stroke:#181818;stroke-width:1.0;" x1="542" x2="542" y1="131.3761" y2="151.3761"/><polygon fill="#181818" points="538,141.3761,542,151.3761,546,141.3761,542,145.3761" style="stroke:#181818;stroke-width:1.0;"/><line style="stroke:#181818;stroke-width:1.0;" x1="542" x2="1064" y1="1220.8328" y2="1220.8328"/><polygon fill="#181818" points="1060,656.1045,1064,646.1045,1068,656.1045,1064,652.1045" style="stroke:#181818;stroke-width:1.0;"/><line style="stroke:#181818;stroke-width:1.0;" x1="1064" x2="1064" y1="119.3761" y2="1220.8328"/><line style="stroke:#181818;stroke-width:1.0;" x1="1064" x2="554" y1="119.3761" y2="119.3761"/><polygon fill="#181818" points="564,115.3761,554,119.3761,564,123.3761,560,119.3761" style="stroke:#181818;stroke-width:1.0;"/><line style="stroke:#181818;stroke-width:1.0;" x1="542" x2="542" y1="87.3761" y2="107.3761"/><polygon fill="#181818" points="538,97.3761,542,107.3761,546,97.3761,542,101.3761" style="stroke:#181818;stroke-width:1.0;"/><!--SRC=[hLF1JiCm3BttAonnsGxqZ5f0OkEuJTE6a3XcgTT62t59NCR-dgJjsevDQ1BacDZlFRyyEnQMqoYP2raeWsjaa6JOajPeqoYoMABW2E1o1Q3vgB121m9MwE-bqWXIQ9s6dfbo3EzDemDNebHRXHbi3k1GesIoeQuZyIqBzE-o42P7bzPNQWkZdZnUUvJu5QrJPE0HDaJis8foIcQhyZYGn9_DynYuG0EZ0xfn3HNEpKpb1R-XrhHFRAVPu1vsTmxQrf-uZHJK3d-Jy_17EOROu-R011bTHtd_RmwGpgvmm6HgU_fb0tLG20U61W6v8A2Xd-WAawUCoYuWbmXWNmHfepbPx88q1kKwn6HfgHIvO0HbRaij91xZ4sp4Bn_1O6chiCvKKBmWzbnKvKMWqaeATwPre7JYpQWpCX1x_9eN8dzj3bS1FVlSSpzBZTEEV9JbjwTV6k47joYompdeKfbTiaAkhF7BL-zX3tVgtzH3S00AnNx1slA1auwfJADl]--></g></svg>
