<svg id="kity_svg_6" xmlns="http://www.w3.org/2000/svg" xmlns:xlink="http://www.w3.org/1999/xlink" version="1.1" width="784" height="1937" style="background: rgb(251, 251, 251) none repeat scroll 0% 0%; visibility: visible;" viewBox="0 0 784 1937"><defs id="kity_defs_7"><linearGradient id="kity_linearGradient_17" x1="0" y1="0" x2="0" y2="1"><stop id="kity_stop_18" offset="0" stop-color="rgb(255, 255, 255)"></stop><stop id="kity_stop_19" offset="1" stop-color="rgb(204, 204, 204)"></stop></linearGradient><marker id="kity_marker_2" orient="auto" refX="6" refY="0" viewBox="-7 -7 14 14" markerWidth="7" markerHeight="7" markerUnits="userSpaceOnUse"><path id="kity_path_3" fill="rgb(115, 161, 191)" stroke="none" d="M6,0A6,6,0,1,1,-6,0A6,6,0,1,1,6,0"></path></marker></defs><g id="kity_g_8"><g id="minder1" text-rendering="geometricPrecision"><g id="minder_connect_group1"><path id="kity_path_31" fill="none" stroke="rgb(115, 161, 191)" stroke-width="1" d="M81,966.5A106.5,1,0,0,0,187.5,967.5"></path><path id="kity_path_124" fill="none" stroke="rgb(115, 161, 191)" stroke-width="1" d="M277.5,967.5C292.5,967.5,292.5,45.5,307.5,45.5L397.5,45.5"></path><path id="kity_path_125" fill="none" stroke="rgb(115, 161, 191)" stroke-width="1" d="M277.5,967.5C292.5,967.5,292.5,227.5,307.5,227.5L385.5,227.5"></path><path id="kity_path_126" fill="none" stroke="rgb(115, 161, 191)" stroke-width="1" d="M277.5,967.5C292.5,967.5,292.5,773.5,307.5,773.5L366.5,773.5"></path><path id="kity_path_127" fill="none" stroke="rgb(115, 161, 191)" stroke-width="1" d="M277.5,967.5C292.5,967.5,292.5,1189.5,307.5,1189.5L390.5,1189.5"></path><path id="kity_path_129" fill="none" stroke="rgb(115, 161, 191)" stroke-width="1" d="M277.5,967.5C292.5,967.5,292.5,1293.5,307.5,1293.5L387.5,1293.5"></path><path id="kity_path_131" fill="none" stroke="rgb(115, 161, 191)" stroke-width="1" d="M277.5,967.5C292.5,967.5,292.5,1579.5,307.5,1579.5L368.5,1579.5"></path><path id="kity_path_139" fill="none" stroke="rgb(115, 161, 191)" stroke-width="1" d="M277.5,967.5C292.5,967.5,292.5,1813.5,307.5,1813.5L381.5,1813.5"></path><path id="kity_path_147" fill="none" stroke="rgb(115, 161, 191)" stroke-width="1" d="M277.5,967.5C292.5,967.5,292.5,1865.5,307.5,1865.5L382.5,1865.5"></path><path id="kity_path_155" fill="none" stroke="rgb(115, 161, 191)" stroke-width="1" d="M397.5,45.5C412.5,45.5,412.5,45.5,427.5,45.5L514.5,45.5"></path><path id="kity_path_163" fill="none" stroke="rgb(115, 161, 191)" stroke-width="1" d="M493.5,695.5C508.5,695.5,508.5,695.5,523.5,695.5L636.5,695.5" display="none"></path><path id="kity_path_171" fill="none" stroke="rgb(115, 161, 191)" stroke-width="1" d="M385.5,227.5C400.5,227.5,400.5,149.5,415.5,149.5L503.5,149.5"></path><path id="kity_path_179" fill="none" stroke="rgb(115, 161, 191)" stroke-width="1" d="M385.5,227.5C400.5,227.5,400.5,201.5,415.5,201.5L556.5,201.5"></path><path id="kity_path_187" fill="none" stroke="rgb(115, 161, 191)" stroke-width="1" d="M385.5,227.5C400.5,227.5,400.5,253.5,415.5,253.5L533.5,253.5"></path><path id="kity_path_195" fill="none" stroke="rgb(115, 161, 191)" stroke-width="1" d="M385.5,227.5C400.5,227.5,400.5,305.5,415.5,305.5L530.5,305.5"></path><path id="kity_path_203" fill="none" stroke="rgb(115, 161, 191)" stroke-width="1" d="M385.5,227.5C400.5,227.5,400.5,357.5,415.5,357.5L513.5,357.5"></path><path id="kity_path_211" fill="none" stroke="rgb(115, 161, 191)" stroke-width="1" d="M385.5,227.5C400.5,227.5,400.5,97.5,415.5,97.5L528.5,97.5"></path><path id="kity_path_227" fill="none" stroke="rgb(115, 161, 191)" stroke-width="1" d="M366.5,773.5C381.5,773.5,381.5,409.5,396.5,409.5L537.5,409.5"></path><path id="kity_path_235" fill="none" stroke="rgb(115, 161, 191)" stroke-width="1" d="M366.5,773.5C381.5,773.5,381.5,461.5,396.5,461.5L487.5,461.5"></path><path id="kity_path_251" fill="none" stroke="rgb(115, 161, 191)" stroke-width="1" d="M366.5,773.5C381.5,773.5,381.5,513.5,396.5,513.5L507.5,513.5"></path><path id="kity_path_259" fill="none" stroke="rgb(115, 161, 191)" stroke-width="1" d="M366.5,773.5C381.5,773.5,381.5,565.5,396.5,565.5L494.5,565.5"></path><path id="kity_path_267" fill="none" stroke="rgb(115, 161, 191)" stroke-width="1" d="M366.5,773.5C381.5,773.5,381.5,617.5,396.5,617.5L484.5,617.5"></path><path id="kity_path_275" fill="none" stroke="rgb(115, 161, 191)" stroke-width="1" d="M366.5,773.5C381.5,773.5,381.5,669.5,396.5,669.5L560.5,669.5"></path><path id="kity_path_283" fill="none" stroke="rgb(115, 161, 191)" stroke-width="1" d="M366.5,773.5C381.5,773.5,381.5,721.5,396.5,721.5L531.5,721.5"></path><path id="kity_path_291" fill="none" stroke="rgb(115, 161, 191)" stroke-width="1" d="M366.5,773.5C381.5,773.5,381.5,773.5,396.5,773.5L586.5,773.5"></path><path id="kity_path_299" fill="none" stroke="rgb(115, 161, 191)" stroke-width="1" d="M366.5,773.5C381.5,773.5,381.5,825.5,396.5,825.5L603.5,825.5"></path><path id="kity_path_307" fill="none" stroke="rgb(115, 161, 191)" stroke-width="1" d="M366.5,773.5C381.5,773.5,381.5,877.5,396.5,877.5L582.5,877.5"></path><path id="kity_path_315" fill="none" stroke="rgb(115, 161, 191)" stroke-width="1" d="M366.5,773.5C381.5,773.5,381.5,929.5,396.5,929.5L619.5,929.5"></path><path id="kity_path_323" fill="none" stroke="rgb(115, 161, 191)" stroke-width="1" d="M366.5,773.5C381.5,773.5,381.5,981.5,396.5,981.5L511.5,981.5"></path><path id="kity_path_331" fill="none" stroke="rgb(115, 161, 191)" stroke-width="1" d="M366.5,773.5C381.5,773.5,381.5,1033.5,396.5,1033.5L495.5,1033.5"></path><path id="kity_path_339" fill="none" stroke="rgb(115, 161, 191)" stroke-width="1" d="M366.5,773.5C381.5,773.5,381.5,1085.5,396.5,1085.5L537.5,1085.5"></path><path id="kity_path_347" fill="none" stroke="rgb(115, 161, 191)" stroke-width="1" d="M366.5,773.5C381.5,773.5,381.5,1137.5,396.5,1137.5L514.5,1137.5"></path><path id="kity_path_355" fill="none" stroke="rgb(115, 161, 191)" stroke-width="1" d="M390.5,1189.5C405.5,1189.5,405.5,1189.5,420.5,1189.5L556.5,1189.5"></path><path id="kity_path_363" fill="none" stroke="rgb(115, 161, 191)" stroke-width="1" d="M277.5,967.5C292.5,967.5,292.5,1917.5,307.5,1917.5L363.5,1917.5"></path><path id="kity_path_371" fill="none" stroke="rgb(115, 161, 191)" stroke-width="1" d="M387.5,1293.5C402.5,1293.5,402.5,1241.5,417.5,1241.5L535.5,1241.5"></path><path id="kity_path_379" fill="none" stroke="rgb(115, 161, 191)" stroke-width="1" d="M387.5,1293.5C402.5,1293.5,402.5,1293.5,417.5,1293.5L558.5,1293.5"></path><path id="kity_path_387" fill="none" stroke="rgb(115, 161, 191)" stroke-width="1" d="M387.5,1293.5C402.5,1293.5,402.5,1345.5,417.5,1345.5L528.5,1345.5"></path><path id="kity_path_395" fill="none" stroke="rgb(115, 161, 191)" stroke-width="1" d="M368.5,1579.5C383.5,1579.5,383.5,1397.5,398.5,1397.5L656.5,1397.5"></path><path id="kity_path_403" fill="none" stroke="rgb(115, 161, 191)" stroke-width="1" d="M368.5,1579.5C383.5,1579.5,383.5,1449.5,398.5,1449.5L503.5,1449.5"></path><path id="kity_path_411" fill="none" stroke="rgb(115, 161, 191)" stroke-width="1" d="M368.5,1579.5C383.5,1579.5,383.5,1501.5,398.5,1501.5L516.5,1501.5"></path><path id="kity_path_419" fill="none" stroke="rgb(115, 161, 191)" stroke-width="1" d="M368.5,1579.5C383.5,1579.5,383.5,1553.5,398.5,1553.5L629.5,1553.5"></path><path id="kity_path_427" fill="none" stroke="rgb(115, 161, 191)" stroke-width="1" d="M368.5,1579.5C383.5,1579.5,383.5,1605.5,398.5,1605.5L496.5,1605.5"></path><path id="kity_path_435" fill="none" stroke="rgb(115, 161, 191)" stroke-width="1" d="M368.5,1579.5C383.5,1579.5,383.5,1657.5,398.5,1657.5L549.5,1657.5"></path><path id="kity_path_443" fill="none" stroke="rgb(115, 161, 191)" stroke-width="1" d="M368.5,1579.5C383.5,1579.5,383.5,1709.5,398.5,1709.5L539.5,1709.5"></path><path id="kity_path_451" fill="none" stroke="rgb(115, 161, 191)" stroke-width="1" d="M368.5,1579.5C383.5,1579.5,383.5,1761.5,398.5,1761.5L509.5,1761.5"></path><path id="kity_path_459" fill="none" stroke="rgb(115, 161, 191)" stroke-width="1" d="M656.5,1397.5C671.5,1397.5,671.5,1397.5,686.5,1397.5L764.5,1397.5"></path><path id="kity_path_475" fill="none" stroke="rgb(115, 161, 191)" stroke-width="1" d="M503.5,1449.5C518.5,1449.5,518.5,1449.5,533.5,1449.5L611.5,1449.5"></path><path id="kity_path_483" fill="none" stroke="rgb(115, 161, 191)" stroke-width="1" d="M516.5,1501.5C531.5,1501.5,531.5,1501.5,546.5,1501.5L624.5,1501.5"></path><path id="kity_path_491" fill="none" stroke="rgb(115, 161, 191)" stroke-width="1" d="M629.5,1553.5C644.5,1553.5,644.5,1553.5,659.5,1553.5L737.5,1553.5"></path><path id="kity_path_499" fill="none" stroke="rgb(115, 161, 191)" stroke-width="1" d="M496.5,1605.5C511.5,1605.5,511.5,1605.5,526.5,1605.5L604.5,1605.5"></path><path id="kity_path_507" fill="none" stroke="rgb(115, 161, 191)" stroke-width="1" d="M549.5,1657.5C564.5,1657.5,564.5,1657.5,579.5,1657.5L684.5,1657.5"></path><path id="kity_path_515" fill="none" stroke="rgb(115, 161, 191)" stroke-width="1" d="M539.5,1709.5C554.5,1709.5,554.5,1709.5,569.5,1709.5L647.5,1709.5"></path><path id="kity_path_523" fill="none" stroke="rgb(115, 161, 191)" stroke-width="1" d="M509.5,1761.5C524.5,1761.5,524.5,1761.5,539.5,1761.5L617.5,1761.5"></path><path id="kity_path_531" fill="none" stroke="rgb(115, 161, 191)" stroke-width="1" d="M381.5,1813.5C396.5,1813.5,396.5,1813.5,411.5,1813.5L526.5,1813.5"></path><path id="kity_path_539" fill="none" stroke="rgb(115, 161, 191)" stroke-width="1" d="M382.5,1865.5C397.5,1865.5,397.5,1865.5,412.5,1865.5L527.5,1865.5"></path><path id="kity_path_547" fill="none" stroke="rgb(115, 161, 191)" stroke-width="1" d="M363.5,1917.5C378.5,1917.5,378.5,1917.5,393.5,1917.5L500.5,1917.5"></path><path id="kity_path_555" fill="none" stroke="rgb(115, 161, 191)" stroke-width="1" d="M513.5,357.5C528.5,357.5,528.5,357.5,543.5,357.5L633.5,357.5"></path></g><g id="minder_node1"><path id="node_outline1" fill="rgb(115, 161, 191)" stroke="rgb(115, 161, 191)" d="M25.5,946.5h111a5,5,0,0,1,5,5v30a5,5,0,0,1,-5,5h-111a5,5,0,0,1,-5,-5v-30a5,5,0,0,1,5,-5z" stroke-width="3"></path><g id="node_text1" fill="white"><text id="kity_text_22" text-rendering="inherit" font-size="16" dy=".8em" y="955.939998626709" x="44.5">scheduler</text></g></g><g id="kity_g_14" display="none"><path id="kity_path_15" fill="none" stroke="none" d="M44.5,966.5h0v0h0z"></path><path id="kity_path_16" fill="none" stroke="none"></path></g><g id="minder_node2" opacity="1"><g id="node_expander1" style="cursor: pointer;"><path id="kity_path_36" fill="white" stroke="gray" d="M188.5,967.5A6,6,0,1,1,176.5,967.5A6,6,0,1,1,188.5,967.5"></path><path id="kity_path_37" fill="none" stroke="gray" d="M178,967.5L187,967.5"></path></g><path id="node_outline2" fill="rgb(238, 243, 246)" stroke="rgb(115, 161, 191)" d="M192.5,954.5h82a3,3,0,0,1,3,3v20a3,3,0,0,1,-3,3h-82a3,3,0,0,1,-3,-3v-20a3,3,0,0,1,3,-3z" stroke-width="1"></path><g id="node_text2" fill="black"><text id="kity_text_33" text-rendering="inherit" font-size="14" dy=".8em" y="958.2599983215332" x="209.5">Plugins</text></g></g><g id="minder_node4"><g id="node_expander3" style="cursor: pointer;"><path id="kity_path_52" fill="white" stroke="gray" d="M317.5,31.5A6,6,0,1,1,305.5,31.5A6,6,0,1,1,317.5,31.5"></path><path id="kity_path_53" fill="none" stroke="gray" d="M307,31.5L316,31.5"></path></g><path id="node_outline4" fill="none" stroke="none" d="M322.5,20.5h70a5,5,0,0,1,5,5v12a5,5,0,0,1,-5,5h-70a5,5,0,0,1,-5,-5v-12a5,5,0,0,1,5,-5z" stroke-width="3"></path><g id="node_text4" fill="black"><text id="kity_text_49" text-rendering="inherit" font-size="12" dy=".8em" y="23.580001831054688" x="327.5">QueueSort</text></g><g id="node_priority1" display="none"><path id="kity_path_64" fill="#840023" stroke="none" d="M303,35c0,3.866,3.134,7,7,7h6c3.866,0,7,-3.134,7,-7V29H303V35z"></path><path id="kity_path_65" fill="#FF1200" stroke="none" d="M323,32c0,3.866,-3.134,7,-7,7H310c-3.866,0,-7,-3.134,-7,-7V29c0,-3.866,3.134,-7,7,-7h6c3.866,0,7,3.134,7,7V32z" opacity="0.8"></path><text id="kity_text_66" text-rendering="geometricPrecision" x="312" y="31.5" text-anchor="middle" font-style="italic" font-size="12" fill="white" dy="5.21999979019165">1</text></g></g><g id="minder_node3"><g id="node_expander2" style="cursor: pointer;"><path id="kity_path_44" fill="white" stroke="gray" d="M317.5,213.5A6,6,0,1,1,305.5,213.5A6,6,0,1,1,317.5,213.5"></path><path id="kity_path_45" fill="none" stroke="gray" d="M307,213.5L316,213.5"></path></g><path id="node_outline3" fill="none" stroke="none" d="M322.5,202.5h58a5,5,0,0,1,5,5v12a5,5,0,0,1,-5,5h-58a5,5,0,0,1,-5,-5v-12a5,5,0,0,1,5,-5z" stroke-width="3"></path><g id="node_text3" fill="black"><text id="kity_text_41" text-rendering="inherit" font-size="12" dy=".8em" y="205.5800018310547" x="327.5">PreFilter</text></g><g id="node_priority2" display="none"><path id="kity_path_69" fill="#01467F" stroke="none" d="M303,217c0,3.866,3.134,7,7,7h6c3.866,0,7,-3.134,7,-7V211H303V217z"></path><path id="kity_path_70" fill="#0074FF" stroke="none" d="M323,214c0,3.866,-3.134,7,-7,7H310c-3.866,0,-7,-3.134,-7,-7V211c0,-3.866,3.134,-7,7,-7h6c3.866,0,7,3.134,7,7V214z" opacity="0.8"></path><text id="kity_text_71" text-rendering="geometricPrecision" x="312" y="213.5" text-anchor="middle" font-style="italic" font-size="12" fill="white" dy="5.21999979019165">2</text></g></g><g id="minder_node6"><g id="node_expander5" style="cursor: pointer;"><path id="kity_path_78" fill="white" stroke="gray" d="M317.5,759.5A6,6,0,1,1,305.5,759.5A6,6,0,1,1,317.5,759.5"></path><path id="kity_path_79" fill="none" stroke="gray" d="M307,759.5L316,759.5"></path></g><path id="node_outline6" fill="none" stroke="none" d="M322.5,748.5h39a5,5,0,0,1,5,5v12a5,5,0,0,1,-5,5h-39a5,5,0,0,1,-5,-5v-12a5,5,0,0,1,5,-5z" stroke-width="3"></path><g id="node_text6" fill="black"><text id="kity_text_75" text-rendering="inherit" font-size="12" dy=".8em" y="751.5800018310547" x="327.5">Filter</text></g><g id="node_priority3" display="none"><path id="kity_path_82" fill="#006300" stroke="none" d="M303,763c0,3.866,3.134,7,7,7h6c3.866,0,7,-3.134,7,-7V757H303V763z"></path><path id="kity_path_83" fill="#00AF00" stroke="none" d="M323,760c0,3.866,-3.134,7,-7,7H310c-3.866,0,-7,-3.134,-7,-7V757c0,-3.866,3.134,-7,7,-7h6c3.866,0,7,3.134,7,7V760z" opacity="0.8"></path><text id="kity_text_84" text-rendering="geometricPrecision" x="312" y="759.5" text-anchor="middle" font-style="italic" font-size="12" fill="white" dy="5.21999979019165">3</text></g></g><g id="minder_node7"><g id="node_expander6" style="cursor: pointer;"><path id="kity_path_91" fill="white" stroke="gray" d="M317.5,1175.5A6,6,0,1,1,305.5,1175.5A6,6,0,1,1,317.5,1175.5"></path><path id="kity_path_92" fill="none" stroke="gray" d="M307,1175.5L316,1175.5"></path></g><path id="node_outline7" fill="none" stroke="none" d="M322.5,1164.5h63a5,5,0,0,1,5,5v12a5,5,0,0,1,-5,5h-63a5,5,0,0,1,-5,-5v-12a5,5,0,0,1,5,-5z" stroke-width="3"></path><g id="node_text7" fill="black"><text id="kity_text_88" text-rendering="inherit" font-size="12" dy=".8em" y="1167.5800018310547" x="327.5">PostFilter</text></g><g id="node_priority4" display="none"><path id="kity_path_95" fill="#B25000" stroke="none" d="M303,1179c0,3.866,3.134,7,7,7h6c3.866,0,7,-3.134,7,-7V1173H303V1179z"></path><path id="kity_path_96" fill="#FF962E" stroke="none" d="M323,1176c0,3.866,-3.134,7,-7,7H310c-3.866,0,-7,-3.134,-7,-7V1173c0,-3.866,3.134,-7,7,-7h6c3.866,0,7,3.134,7,7V1176z" opacity="0.8"></path><text id="kity_text_97" text-rendering="geometricPrecision" x="312" y="1175.5" text-anchor="middle" font-style="italic" font-size="12" fill="white" dy="5.21999979019165">4</text></g></g><g id="minder_node9"><g id="node_expander8" style="cursor: pointer;"><path id="kity_path_117" fill="white" stroke="gray" d="M317.5,1279.5A6,6,0,1,1,305.5,1279.5A6,6,0,1,1,317.5,1279.5"></path><path id="kity_path_118" fill="none" stroke="gray" d="M307,1279.5L316,1279.5"></path></g><path id="node_outline9" fill="none" stroke="none" d="M322.5,1268.5h60a5,5,0,0,1,5,5v12a5,5,0,0,1,-5,5h-60a5,5,0,0,1,-5,-5v-12a5,5,0,0,1,5,-5z" stroke-width="3"></path><g id="node_text9" fill="black"><text id="kity_text_114" text-rendering="inherit" font-size="12" dy=".8em" y="1271.5800018310547" x="327.5">PreScore</text></g><g id="node_priority6" display="none"><path id="kity_path_121" fill="#515151" stroke="none" d="M303,1283c0,3.866,3.134,7,7,7h6c3.866,0,7,-3.134,7,-7V1277H303V1283z"></path><path id="kity_path_122" fill="#A3A3A3" stroke="none" d="M323,1280c0,3.866,-3.134,7,-7,7H310c-3.866,0,-7,-3.134,-7,-7V1277c0,-3.866,3.134,-7,7,-7h6c3.866,0,7,3.134,7,7V1280z" opacity="0.8"></path><text id="kity_text_123" text-rendering="geometricPrecision" x="312" y="1279.5" text-anchor="middle" font-style="italic" font-size="12" fill="white" dy="5.21999979019165">6</text></g></g><g id="minder_node10"><g id="node_expander9" style="cursor: pointer;"><path id="kity_path_136" fill="white" stroke="gray" d="M317.5,1565.5A6,6,0,1,1,305.5,1565.5A6,6,0,1,1,317.5,1565.5"></path><path id="kity_path_137" fill="none" stroke="gray" d="M307,1565.5L316,1565.5"></path></g><path id="node_outline10" fill="none" stroke="none" d="M322.5,1554.5h41a5,5,0,0,1,5,5v12a5,5,0,0,1,-5,5h-41a5,5,0,0,1,-5,-5v-12a5,5,0,0,1,5,-5z" stroke-width="3"></path><g id="node_text10" fill="black"><text id="kity_text_133" text-rendering="inherit" font-size="12" dy=".8em" y="1557.5800018310547" x="327.5">Score</text></g></g><g id="minder_node11"><g id="node_expander10" style="cursor: pointer;"><path id="kity_path_144" fill="white" stroke="gray" d="M317.5,1799.5A6,6,0,1,1,305.5,1799.5A6,6,0,1,1,317.5,1799.5"></path><path id="kity_path_145" fill="none" stroke="gray" d="M307,1799.5L316,1799.5"></path></g><path id="node_outline11" fill="none" stroke="none" d="M322.5,1788.5h54a5,5,0,0,1,5,5v12a5,5,0,0,1,-5,5h-54a5,5,0,0,1,-5,-5v-12a5,5,0,0,1,5,-5z" stroke-width="3"></path><g id="node_text11" fill="black"><text id="kity_text_141" text-rendering="inherit" font-size="12" dy=".8em" y="1791.5800018310547" x="327.5">Reserve</text></g></g><g id="minder_node12"><g id="node_expander11" style="cursor: pointer;"><path id="kity_path_152" fill="white" stroke="gray" d="M317.5,1851.5A6,6,0,1,1,305.5,1851.5A6,6,0,1,1,317.5,1851.5"></path><path id="kity_path_153" fill="none" stroke="gray" d="M307,1851.5L316,1851.5"></path></g><path id="node_outline12" fill="none" stroke="none" d="M322.5,1840.5h55a5,5,0,0,1,5,5v12a5,5,0,0,1,-5,5h-55a5,5,0,0,1,-5,-5v-12a5,5,0,0,1,5,-5z" stroke-width="3"></path><g id="node_text12" fill="black"><text id="kity_text_149" text-rendering="inherit" font-size="12" dy=".8em" y="1843.5800018310547" x="327.5">PreBind</text></g></g><g id="minder_node13"><g id="node_expander12" style="cursor: pointer;" display="none"><path id="kity_path_160" fill="white" stroke="gray" d="M437.5,31.5A6,6,0,1,1,425.5,31.5A6,6,0,1,1,437.5,31.5"></path><path id="kity_path_161" fill="none" stroke="gray" d="M427,31.5L436,31.5"></path></g><path id="node_outline13" fill="none" stroke="none" d="M442.5,20.5h67a5,5,0,0,1,5,5v12a5,5,0,0,1,-5,5h-67a5,5,0,0,1,-5,-5v-12a5,5,0,0,1,5,-5z" stroke-width="3"></path><g id="node_text13" fill="black"><text id="kity_text_157" text-rendering="inherit" font-size="12" dy=".8em" y="23.580001831054688" x="447.5">queuesort</text></g></g><g id="minder_node14" display="none"><g id="node_expander13" style="cursor: pointer;" display="none"><path id="kity_path_168" fill="white" stroke="gray" d="M568.5,83.5A6,6,0,1,1,556.5,83.5A6,6,0,1,1,568.5,83.5"></path><path id="kity_path_169" fill="none" stroke="gray"></path></g><path id="node_outline14" fill="none" stroke="none" d="M563.5,72.5h93a5,5,0,0,1,5,5v12a5,5,0,0,1,-5,5h-93a5,5,0,0,1,-5,-5v-12a5,5,0,0,1,5,-5z" stroke-width="3"></path><g id="node_text14" fill="black"><text id="kity_text_165" text-rendering="inherit" font-size="12" dy=".8em" y="75.58000183105469" x="568.5">noderesources</text></g></g><g id="minder_node15"><g id="node_expander14" style="cursor: pointer;" display="none"><path id="kity_path_176" fill="white" stroke="gray" d="M425.5,135.5A6,6,0,1,1,413.5,135.5A6,6,0,1,1,425.5,135.5"></path><path id="kity_path_177" fill="none" stroke="gray"></path></g><path id="node_outline15" fill="none" stroke="none" d="M430.5,124.5h68a5,5,0,0,1,5,5v12a5,5,0,0,1,-5,5h-68a5,5,0,0,1,-5,-5v-12a5,5,0,0,1,5,-5z" stroke-width="3"></path><g id="node_text15" fill="black"><text id="kity_text_173" text-rendering="inherit" font-size="12" dy=".8em" y="127.58000183105469" x="435.5">nodeports</text></g></g><g id="minder_node16"><g id="node_expander15" style="cursor: pointer;" display="none"><path id="kity_path_184" fill="white" stroke="gray" d="M425.5,187.5A6,6,0,1,1,413.5,187.5A6,6,0,1,1,425.5,187.5"></path><path id="kity_path_185" fill="none" stroke="gray"></path></g><path id="node_outline16" fill="none" stroke="none" d="M430.5,176.5h121a5,5,0,0,1,5,5v12a5,5,0,0,1,-5,5h-121a5,5,0,0,1,-5,-5v-12a5,5,0,0,1,5,-5z" stroke-width="3"></path><g id="node_text16" fill="black"><text id="kity_text_181" text-rendering="inherit" font-size="12" dy=".8em" y="179.5800018310547" x="435.5">podtopologyspread</text></g></g><g id="minder_node17"><g id="node_expander16" style="cursor: pointer;" display="none"><path id="kity_path_192" fill="white" stroke="gray" d="M425.5,239.5A6,6,0,1,1,413.5,239.5A6,6,0,1,1,425.5,239.5"></path><path id="kity_path_193" fill="none" stroke="gray"></path></g><path id="node_outline17" fill="none" stroke="none" d="M430.5,228.5h98a5,5,0,0,1,5,5v12a5,5,0,0,1,-5,5h-98a5,5,0,0,1,-5,-5v-12a5,5,0,0,1,5,-5z" stroke-width="3"></path><g id="node_text17" fill="black"><text id="kity_text_189" text-rendering="inherit" font-size="12" dy=".8em" y="231.5800018310547" x="435.5">interpodaffinity</text></g></g><g id="minder_node18"><g id="node_expander17" style="cursor: pointer;" display="none"><path id="kity_path_200" fill="white" stroke="gray" d="M425.5,291.5A6,6,0,1,1,413.5,291.5A6,6,0,1,1,425.5,291.5"></path><path id="kity_path_201" fill="none" stroke="gray"></path></g><path id="node_outline18" fill="none" stroke="none" d="M430.5,280.5h95a5,5,0,0,1,5,5v12a5,5,0,0,1,-5,5h-95a5,5,0,0,1,-5,-5v-12a5,5,0,0,1,5,-5z" stroke-width="3"></path><g id="node_text18" fill="black"><text id="kity_text_197" text-rendering="inherit" font-size="12" dy=".8em" y="283.5800018310547" x="435.5">volumebinding</text></g></g><g id="minder_node19"><g id="node_expander18" style="cursor: pointer;"><path id="kity_path_208" fill="white" stroke="gray" d="M425.5,343.5A6,6,0,1,1,413.5,343.5A6,6,0,1,1,425.5,343.5"></path><path id="kity_path_209" fill="none" stroke="gray" d="M415,343.5L424,343.5"></path></g><path id="node_outline19" fill="none" stroke="none" d="M430.5,332.5h78a5,5,0,0,1,5,5v12a5,5,0,0,1,-5,5h-78a5,5,0,0,1,-5,-5v-12a5,5,0,0,1,5,-5z" stroke-width="3"></path><g id="node_text19" fill="black"><text id="kity_text_205" text-rendering="inherit" font-size="12" dy=".8em" y="335.5800018310547" x="435.5">nodeaffinity</text></g></g><g id="minder_node20"><g id="node_expander19" style="cursor: pointer;"><path id="kity_path_216" fill="white" stroke="gray" d="M425.5,83.5A6,6,0,1,1,413.5,83.5A6,6,0,1,1,425.5,83.5"></path><path id="kity_path_217" fill="none" stroke="gray" d="M415,83.5L424,83.5M419.5,79L419.5,88"></path></g><path id="node_outline20" fill="none" stroke="none" d="M430.5,72.5h93a5,5,0,0,1,5,5v12a5,5,0,0,1,-5,5h-93a5,5,0,0,1,-5,-5v-12a5,5,0,0,1,5,-5z" stroke-width="3"></path><g id="node_text20" fill="black"><text id="kity_text_213" text-rendering="inherit" font-size="12" dy=".8em" y="75.58000183105469" x="435.5">noderesources</text></g></g><g id="minder_node22"><g id="node_expander21" style="cursor: pointer;" display="none"><path id="kity_path_232" fill="white" stroke="gray" d="M406.5,395.5A6,6,0,1,1,394.5,395.5A6,6,0,1,1,406.5,395.5"></path><path id="kity_path_233" fill="none" stroke="gray"></path></g><path id="node_outline22" fill="none" stroke="none" d="M411.5,384.5h121a5,5,0,0,1,5,5v12a5,5,0,0,1,-5,5h-121a5,5,0,0,1,-5,-5v-12a5,5,0,0,1,5,-5z" stroke-width="3"></path><g id="node_text22" fill="black"><text id="kity_text_229" text-rendering="inherit" font-size="12" dy=".8em" y="387.5800018310547" x="416.5">nodeunschedulable</text></g></g><g id="minder_node23"><g id="node_expander22" style="cursor: pointer;" display="none"><path id="kity_path_240" fill="white" stroke="gray" d="M406.5,447.5A6,6,0,1,1,394.5,447.5A6,6,0,1,1,406.5,447.5"></path><path id="kity_path_241" fill="none" stroke="gray" d="M396,447.5L405,447.5"></path></g><path id="node_outline23" fill="none" stroke="none" d="M411.5,436.5h71a5,5,0,0,1,5,5v12a5,5,0,0,1,-5,5h-71a5,5,0,0,1,-5,-5v-12a5,5,0,0,1,5,-5z" stroke-width="3"></path><g id="node_text23" fill="black"><text id="kity_text_237" text-rendering="inherit" font-size="12" dy=".8em" y="439.5800018310547" x="416.5">nodename</text></g></g><g id="minder_node25"><g id="node_expander24" style="cursor: pointer;" display="none"><path id="kity_path_256" fill="white" stroke="gray" d="M406.5,499.5A6,6,0,1,1,394.5,499.5A6,6,0,1,1,406.5,499.5"></path><path id="kity_path_257" fill="none" stroke="gray"></path></g><path id="node_outline25" fill="none" stroke="none" d="M411.5,488.5h91a5,5,0,0,1,5,5v12a5,5,0,0,1,-5,5h-91a5,5,0,0,1,-5,-5v-12a5,5,0,0,1,5,-5z" stroke-width="3"></path><g id="node_text25" fill="black"><text id="kity_text_253" text-rendering="inherit" font-size="12" dy=".8em" y="491.5800018310547" x="416.5">tainttoleration</text></g></g><g id="minder_node26"><g id="node_expander25" style="cursor: pointer;" display="none"><path id="kity_path_264" fill="white" stroke="gray" d="M406.5,551.5A6,6,0,1,1,394.5,551.5A6,6,0,1,1,406.5,551.5"></path><path id="kity_path_265" fill="none" stroke="gray"></path></g><path id="node_outline26" fill="none" stroke="none" d="M411.5,540.5h78a5,5,0,0,1,5,5v12a5,5,0,0,1,-5,5h-78a5,5,0,0,1,-5,-5v-12a5,5,0,0,1,5,-5z" stroke-width="3"></path><g id="node_text26" fill="black"><text id="kity_text_261" text-rendering="inherit" font-size="12" dy=".8em" y="543.5800018310547" x="416.5">nodeaffinity</text></g></g><g id="minder_node27"><g id="node_expander26" style="cursor: pointer;" display="none"><path id="kity_path_272" fill="white" stroke="gray" d="M406.5,603.5A6,6,0,1,1,394.5,603.5A6,6,0,1,1,406.5,603.5"></path><path id="kity_path_273" fill="none" stroke="gray"></path></g><path id="node_outline27" fill="none" stroke="none" d="M411.5,592.5h68a5,5,0,0,1,5,5v12a5,5,0,0,1,-5,5h-68a5,5,0,0,1,-5,-5v-12a5,5,0,0,1,5,-5z" stroke-width="3"></path><g id="node_text27" fill="black"><text id="kity_text_269" text-rendering="inherit" font-size="12" dy=".8em" y="595.5800018310547" x="416.5">nodeports</text></g></g><g id="minder_node28"><g id="node_expander27" style="cursor: pointer;" display="none"><path id="kity_path_280" fill="white" stroke="gray" d="M406.5,655.5A6,6,0,1,1,394.5,655.5A6,6,0,1,1,406.5,655.5"></path><path id="kity_path_281" fill="none" stroke="gray"></path></g><path id="node_outline28" fill="none" stroke="none" d="M411.5,644.5h144a5,5,0,0,1,5,5v12a5,5,0,0,1,-5,5h-144a5,5,0,0,1,-5,-5v-12a5,5,0,0,1,5,-5z" stroke-width="3"></path><g id="node_text28" fill="black"><text id="kity_text_277" text-rendering="inherit" font-size="12" dy=".8em" y="647.5800018310547" x="416.5">noderesources.FitName</text></g></g><g id="minder_node29"><g id="node_expander28" style="cursor: pointer;" display="none"><path id="kity_path_288" fill="white" stroke="gray" d="M406.5,707.5A6,6,0,1,1,394.5,707.5A6,6,0,1,1,406.5,707.5"></path><path id="kity_path_289" fill="none" stroke="gray"></path></g><path id="node_outline29" fill="none" stroke="none" d="M411.5,696.5h115a5,5,0,0,1,5,5v12a5,5,0,0,1,-5,5h-115a5,5,0,0,1,-5,-5v-12a5,5,0,0,1,5,-5z" stroke-width="3"></path><g id="node_text29" fill="black"><text id="kity_text_285" text-rendering="inherit" font-size="12" dy=".8em" y="699.5800018310547" x="416.5">volumerestrictions</text></g></g><g id="minder_node30"><g id="node_expander29" style="cursor: pointer;" display="none"><path id="kity_path_296" fill="white" stroke="gray" d="M406.5,759.5A6,6,0,1,1,394.5,759.5A6,6,0,1,1,406.5,759.5"></path><path id="kity_path_297" fill="none" stroke="gray"></path></g><path id="node_outline30" fill="none" stroke="none" d="M411.5,748.5h170a5,5,0,0,1,5,5v12a5,5,0,0,1,-5,5h-170a5,5,0,0,1,-5,-5v-12a5,5,0,0,1,5,-5z" stroke-width="3"></path><g id="node_text30" fill="black"><text id="kity_text_293" text-rendering="inherit" font-size="12" dy=".8em" y="751.5800018310547" x="416.5">nodevolumelimits.EBSName</text></g></g><g id="minder_node31"><g id="node_expander30" style="cursor: pointer;" display="none"><path id="kity_path_304" fill="white" stroke="gray" d="M406.5,811.5A6,6,0,1,1,394.5,811.5A6,6,0,1,1,406.5,811.5"></path><path id="kity_path_305" fill="none" stroke="gray"></path></g><path id="node_outline31" fill="none" stroke="none" d="M411.5,800.5h187a5,5,0,0,1,5,5v12a5,5,0,0,1,-5,5h-187a5,5,0,0,1,-5,-5v-12a5,5,0,0,1,5,-5z" stroke-width="3"></path><g id="node_text31" fill="black"><text id="kity_text_301" text-rendering="inherit" font-size="12" dy=".8em" y="803.5800018310547" x="416.5">nodevolumelimits.GCEPDName</text></g></g><g id="minder_node32"><g id="node_expander31" style="cursor: pointer;" display="none"><path id="kity_path_312" fill="white" stroke="gray" d="M406.5,863.5A6,6,0,1,1,394.5,863.5A6,6,0,1,1,406.5,863.5"></path><path id="kity_path_313" fill="none" stroke="gray"></path></g><path id="node_outline32" fill="none" stroke="none" d="M411.5,852.5h166a5,5,0,0,1,5,5v12a5,5,0,0,1,-5,5h-166a5,5,0,0,1,-5,-5v-12a5,5,0,0,1,5,-5z" stroke-width="3"></path><g id="node_text32" fill="black"><text id="kity_text_309" text-rendering="inherit" font-size="12" dy=".8em" y="855.5800018310547" x="416.5">nodevolumelimits.CSIName</text></g></g><g id="minder_node33"><g id="node_expander32" style="cursor: pointer;" display="none"><path id="kity_path_320" fill="white" stroke="gray" d="M406.5,915.5A6,6,0,1,1,394.5,915.5A6,6,0,1,1,406.5,915.5"></path><path id="kity_path_321" fill="none" stroke="gray"></path></g><path id="node_outline33" fill="none" stroke="none" d="M411.5,904.5h203a5,5,0,0,1,5,5v12a5,5,0,0,1,-5,5h-203a5,5,0,0,1,-5,-5v-12a5,5,0,0,1,5,-5z" stroke-width="3"></path><g id="node_text33" fill="black"><text id="kity_text_317" text-rendering="inherit" font-size="12" dy=".8em" y="907.5800018310547" x="416.5">nodevolumelimits.AzureDiskName</text></g></g><g id="minder_node34"><g id="node_expander33" style="cursor: pointer;" display="none"><path id="kity_path_328" fill="white" stroke="gray" d="M406.5,967.5A6,6,0,1,1,394.5,967.5A6,6,0,1,1,406.5,967.5"></path><path id="kity_path_329" fill="none" stroke="gray"></path></g><path id="node_outline34" fill="none" stroke="none" d="M411.5,956.5h95a5,5,0,0,1,5,5v12a5,5,0,0,1,-5,5h-95a5,5,0,0,1,-5,-5v-12a5,5,0,0,1,5,-5z" stroke-width="3"></path><g id="node_text34" fill="black"><text id="kity_text_325" text-rendering="inherit" font-size="12" dy=".8em" y="959.5800018310547" x="416.5">volumebinding</text></g></g><g id="minder_node35"><g id="node_expander34" style="cursor: pointer;" display="none"><path id="kity_path_336" fill="white" stroke="gray" d="M406.5,1019.5A6,6,0,1,1,394.5,1019.5A6,6,0,1,1,406.5,1019.5"></path><path id="kity_path_337" fill="none" stroke="gray"></path></g><path id="node_outline35" fill="none" stroke="none" d="M411.5,1008.5h79a5,5,0,0,1,5,5v12a5,5,0,0,1,-5,5h-79a5,5,0,0,1,-5,-5v-12a5,5,0,0,1,5,-5z" stroke-width="3"></path><g id="node_text35" fill="black"><text id="kity_text_333" text-rendering="inherit" font-size="12" dy=".8em" y="1011.5800018310547" x="416.5">volumezone</text></g></g><g id="minder_node36"><g id="node_expander35" style="cursor: pointer;" display="none"><path id="kity_path_344" fill="white" stroke="gray" d="M406.5,1071.5A6,6,0,1,1,394.5,1071.5A6,6,0,1,1,406.5,1071.5"></path><path id="kity_path_345" fill="none" stroke="gray"></path></g><path id="node_outline36" fill="none" stroke="none" d="M411.5,1060.5h121a5,5,0,0,1,5,5v12a5,5,0,0,1,-5,5h-121a5,5,0,0,1,-5,-5v-12a5,5,0,0,1,5,-5z" stroke-width="3"></path><g id="node_text36" fill="black"><text id="kity_text_341" text-rendering="inherit" font-size="12" dy=".8em" y="1063.5800018310547" x="416.5">podtopologyspread</text></g></g><g id="minder_node37"><g id="node_expander36" style="cursor: pointer;" display="none"><path id="kity_path_352" fill="white" stroke="gray" d="M406.5,1123.5A6,6,0,1,1,394.5,1123.5A6,6,0,1,1,406.5,1123.5"></path><path id="kity_path_353" fill="none" stroke="gray"></path></g><path id="node_outline37" fill="none" stroke="none" d="M411.5,1112.5h98a5,5,0,0,1,5,5v12a5,5,0,0,1,-5,5h-98a5,5,0,0,1,-5,-5v-12a5,5,0,0,1,5,-5z" stroke-width="3"></path><g id="node_text37" fill="black"><text id="kity_text_349" text-rendering="inherit" font-size="12" dy=".8em" y="1115.5800018310547" x="416.5">interpodaffinity</text></g></g><g id="minder_node38"><g id="node_expander37" style="cursor: pointer;" display="none"><path id="kity_path_360" fill="white" stroke="gray" d="M430.5,1175.5A6,6,0,1,1,418.5,1175.5A6,6,0,1,1,430.5,1175.5"></path><path id="kity_path_361" fill="none" stroke="gray"></path></g><path id="node_outline38" fill="none" stroke="none" d="M435.5,1164.5h116a5,5,0,0,1,5,5v12a5,5,0,0,1,-5,5h-116a5,5,0,0,1,-5,-5v-12a5,5,0,0,1,5,-5z" stroke-width="3"></path><g id="node_text38" fill="black"><text id="kity_text_357" text-rendering="inherit" font-size="12" dy=".8em" y="1167.5800018310547" x="440.5">defaultpreemption</text></g></g><g id="kity_g_12" display="none"><path id="kity_path_13" fill="none" stroke="rgb(66, 94, 112)" d="M322.5,1502.5h41a5,5,0,0,1,5,5v12a5,5,0,0,1,-5,5h-41a5,5,0,0,1,-5,-5v-12a5,5,0,0,1,5,-5z" stroke-width="5"></path></g><g id="minder_node39"><g id="node_expander38" style="cursor: pointer;"><path id="kity_path_368" fill="white" stroke="gray" d="M317.5,1903.5A6,6,0,1,1,305.5,1903.5A6,6,0,1,1,317.5,1903.5"></path><path id="kity_path_369" fill="none" stroke="gray" d="M307,1903.5L316,1903.5"></path></g><path id="node_outline39" fill="none" stroke="none" d="M322.5,1892.5h36a5,5,0,0,1,5,5v12a5,5,0,0,1,-5,5h-36a5,5,0,0,1,-5,-5v-12a5,5,0,0,1,5,-5z" stroke-width="3"></path><g id="node_text39" fill="black"><text id="kity_text_365" text-rendering="inherit" font-size="12" dy=".8em" y="1895.5800018310547" x="327.5">Bind</text></g></g><g id="minder_node40"><g id="node_expander39" style="cursor: pointer;" display="none"><path id="kity_path_376" fill="white" stroke="gray" d="M427.5,1227.5A6,6,0,1,1,415.5,1227.5A6,6,0,1,1,427.5,1227.5"></path><path id="kity_path_377" fill="none" stroke="gray"></path></g><path id="node_outline40" fill="none" stroke="none" d="M432.5,1216.5h98a5,5,0,0,1,5,5v12a5,5,0,0,1,-5,5h-98a5,5,0,0,1,-5,-5v-12a5,5,0,0,1,5,-5z" stroke-width="3"></path><g id="node_text40" fill="black"><text id="kity_text_373" text-rendering="inherit" font-size="12" dy=".8em" y="1219.5800018310547" x="437.5">interpodaffinity</text></g></g><g id="minder_node41"><g id="node_expander40" style="cursor: pointer;" display="none"><path id="kity_path_384" fill="white" stroke="gray" d="M427.5,1279.5A6,6,0,1,1,415.5,1279.5A6,6,0,1,1,427.5,1279.5"></path><path id="kity_path_385" fill="none" stroke="gray"></path></g><path id="node_outline41" fill="none" stroke="none" d="M432.5,1268.5h121a5,5,0,0,1,5,5v12a5,5,0,0,1,-5,5h-121a5,5,0,0,1,-5,-5v-12a5,5,0,0,1,5,-5z" stroke-width="3"></path><g id="node_text41" fill="black"><text id="kity_text_381" text-rendering="inherit" font-size="12" dy=".8em" y="1271.5800018310547" x="437.5">podtopologyspread</text></g></g><g id="minder_node42"><g id="node_expander41" style="cursor: pointer;" display="none"><path id="kity_path_392" fill="white" stroke="gray" d="M427.5,1331.5A6,6,0,1,1,415.5,1331.5A6,6,0,1,1,427.5,1331.5"></path><path id="kity_path_393" fill="none" stroke="gray"></path></g><path id="node_outline42" fill="none" stroke="none" d="M432.5,1320.5h91a5,5,0,0,1,5,5v12a5,5,0,0,1,-5,5h-91a5,5,0,0,1,-5,-5v-12a5,5,0,0,1,5,-5z" stroke-width="3"></path><g id="node_text42" fill="black"><text id="kity_text_389" text-rendering="inherit" font-size="12" dy=".8em" y="1323.5800018310547" x="437.5">tainttoleration</text></g></g><g id="minder_node43"><g id="node_expander42" style="cursor: pointer;"><path id="kity_path_400" fill="white" stroke="gray" d="M408.5,1383.5A6,6,0,1,1,396.5,1383.5A6,6,0,1,1,408.5,1383.5"></path><path id="kity_path_401" fill="none" stroke="gray" d="M398,1383.5L407,1383.5"></path></g><path id="node_outline43" fill="none" stroke="none" d="M413.5,1372.5h238a5,5,0,0,1,5,5v12a5,5,0,0,1,-5,5h-238a5,5,0,0,1,-5,-5v-12a5,5,0,0,1,5,-5z" stroke-width="3"></path><g id="node_text43" fill="black"><text id="kity_text_397" text-rendering="inherit" font-size="12" dy=".8em" y="1375.5800018310547" x="418.5">noderesources.BalancedAllocationName</text></g></g><g id="minder_node44"><g id="node_expander43" style="cursor: pointer;"><path id="kity_path_408" fill="white" stroke="gray" d="M408.5,1435.5A6,6,0,1,1,396.5,1435.5A6,6,0,1,1,408.5,1435.5"></path><path id="kity_path_409" fill="none" stroke="gray" d="M398,1435.5L407,1435.5"></path></g><path id="node_outline44" fill="none" stroke="none" d="M413.5,1424.5h85a5,5,0,0,1,5,5v12a5,5,0,0,1,-5,5h-85a5,5,0,0,1,-5,-5v-12a5,5,0,0,1,5,-5z" stroke-width="3"></path><g id="node_text44" fill="black"><text id="kity_text_405" text-rendering="inherit" font-size="12" dy=".8em" y="1427.5800018310547" x="418.5">imagelocality</text></g></g><g id="minder_node45"><g id="node_expander44" style="cursor: pointer;"><path id="kity_path_416" fill="white" stroke="gray" d="M408.5,1487.5A6,6,0,1,1,396.5,1487.5A6,6,0,1,1,408.5,1487.5"></path><path id="kity_path_417" fill="none" stroke="gray" d="M398,1487.5L407,1487.5"></path></g><path id="node_outline45" fill="none" stroke="none" d="M413.5,1476.5h98a5,5,0,0,1,5,5v12a5,5,0,0,1,-5,5h-98a5,5,0,0,1,-5,-5v-12a5,5,0,0,1,5,-5z" stroke-width="3"></path><g id="node_text45" fill="black"><text id="kity_text_413" text-rendering="inherit" font-size="12" dy=".8em" y="1479.5800018310547" x="418.5">interpodaffinity</text></g></g><g id="minder_node46"><g id="node_expander45" style="cursor: pointer;"><path id="kity_path_424" fill="white" stroke="gray" d="M408.5,1539.5A6,6,0,1,1,396.5,1539.5A6,6,0,1,1,408.5,1539.5"></path><path id="kity_path_425" fill="none" stroke="gray" d="M398,1539.5L407,1539.5"></path></g><path id="node_outline46" fill="none" stroke="none" d="M413.5,1528.5h211a5,5,0,0,1,5,5v12a5,5,0,0,1,-5,5h-211a5,5,0,0,1,-5,-5v-12a5,5,0,0,1,5,-5z" stroke-width="3"></path><g id="node_text46" fill="black"><text id="kity_text_421" text-rendering="inherit" font-size="12" dy=".8em" y="1531.5800018310547" x="418.5">noderesources.LeastAllocatedName</text></g></g><g id="minder_node47"><g id="node_expander46" style="cursor: pointer;"><path id="kity_path_432" fill="white" stroke="gray" d="M408.5,1591.5A6,6,0,1,1,396.5,1591.5A6,6,0,1,1,408.5,1591.5"></path><path id="kity_path_433" fill="none" stroke="gray" d="M398,1591.5L407,1591.5"></path></g><path id="node_outline47" fill="none" stroke="none" d="M413.5,1580.5h78a5,5,0,0,1,5,5v12a5,5,0,0,1,-5,5h-78a5,5,0,0,1,-5,-5v-12a5,5,0,0,1,5,-5z" stroke-width="3"></path><g id="node_text47" fill="black"><text id="kity_text_429" text-rendering="inherit" font-size="12" dy=".8em" y="1583.5800018310547" x="418.5">nodeaffinity</text></g></g><g id="minder_node48"><g id="node_expander47" style="cursor: pointer;"><path id="kity_path_440" fill="white" stroke="gray" d="M408.5,1643.5A6,6,0,1,1,396.5,1643.5A6,6,0,1,1,408.5,1643.5"></path><path id="kity_path_441" fill="none" stroke="gray" d="M398,1643.5L407,1643.5"></path></g><path id="node_outline48" fill="none" stroke="none" d="M413.5,1632.5h131a5,5,0,0,1,5,5v12a5,5,0,0,1,-5,5h-131a5,5,0,0,1,-5,-5v-12a5,5,0,0,1,5,-5z" stroke-width="3"></path><g id="node_text48" fill="black"><text id="kity_text_437" text-rendering="inherit" font-size="12" dy=".8em" y="1635.5800018310547" x="418.5">nodepreferavoidpods</text></g></g><g id="minder_node49"><g id="node_expander48" style="cursor: pointer;"><path id="kity_path_448" fill="white" stroke="gray" d="M408.5,1695.5A6,6,0,1,1,396.5,1695.5A6,6,0,1,1,408.5,1695.5"></path><path id="kity_path_449" fill="none" stroke="gray" d="M398,1695.5L407,1695.5"></path></g><path id="node_outline49" fill="none" stroke="none" d="M413.5,1684.5h121a5,5,0,0,1,5,5v12a5,5,0,0,1,-5,5h-121a5,5,0,0,1,-5,-5v-12a5,5,0,0,1,5,-5z" stroke-width="3"></path><g id="node_text49" fill="black"><text id="kity_text_445" text-rendering="inherit" font-size="12" dy=".8em" y="1687.5800018310547" x="418.5">podtopologyspread</text></g></g><g id="minder_node50"><g id="node_expander49" style="cursor: pointer;"><path id="kity_path_456" fill="white" stroke="gray" d="M408.5,1747.5A6,6,0,1,1,396.5,1747.5A6,6,0,1,1,408.5,1747.5"></path><path id="kity_path_457" fill="none" stroke="gray" d="M398,1747.5L407,1747.5"></path></g><path id="node_outline50" fill="none" stroke="none" d="M413.5,1736.5h91a5,5,0,0,1,5,5v12a5,5,0,0,1,-5,5h-91a5,5,0,0,1,-5,-5v-12a5,5,0,0,1,5,-5z" stroke-width="3"></path><g id="node_text50" fill="black"><text id="kity_text_453" text-rendering="inherit" font-size="12" dy=".8em" y="1739.5800018310547" x="418.5">tainttoleration</text></g></g><g id="minder_node51"><g id="node_expander50" style="cursor: pointer;" display="none"><path id="kity_path_464" fill="white" stroke="gray" d="M696.5,1383.5A6,6,0,1,1,684.5,1383.5A6,6,0,1,1,696.5,1383.5"></path><path id="kity_path_465" fill="none" stroke="gray"></path></g><path id="node_outline51" fill="none" stroke="none" d="M701.5,1372.5h58a5,5,0,0,1,5,5v12a5,5,0,0,1,-5,5h-58a5,5,0,0,1,-5,-5v-12a5,5,0,0,1,5,-5z" stroke-width="3"></path><g id="node_text51" fill="black"><text id="kity_text_461" text-rendering="inherit" font-size="12" dy=".8em" y="1375.5800018310547" x="706.5">weight:1</text></g></g><g id="minder_node53"><g id="node_expander52" style="cursor: pointer;" display="none"><path id="kity_path_480" fill="white" stroke="gray" d="M543.5,1435.5A6,6,0,1,1,531.5,1435.5A6,6,0,1,1,543.5,1435.5"></path><path id="kity_path_481" fill="none" stroke="gray"></path></g><path id="node_outline53" fill="none" stroke="none" d="M548.5,1424.5h58a5,5,0,0,1,5,5v12a5,5,0,0,1,-5,5h-58a5,5,0,0,1,-5,-5v-12a5,5,0,0,1,5,-5z" stroke-width="3"></path><g id="node_text53" fill="black"><text id="kity_text_477" text-rendering="inherit" font-size="12" dy=".8em" y="1427.5800018310547" x="553.5">weight:1</text></g></g><g id="minder_node54"><g id="node_expander53" style="cursor: pointer;" display="none"><path id="kity_path_488" fill="white" stroke="gray" d="M556.5,1487.5A6,6,0,1,1,544.5,1487.5A6,6,0,1,1,556.5,1487.5"></path><path id="kity_path_489" fill="none" stroke="gray"></path></g><path id="node_outline54" fill="none" stroke="none" d="M561.5,1476.5h58a5,5,0,0,1,5,5v12a5,5,0,0,1,-5,5h-58a5,5,0,0,1,-5,-5v-12a5,5,0,0,1,5,-5z" stroke-width="3"></path><g id="node_text54" fill="black"><text id="kity_text_485" text-rendering="inherit" font-size="12" dy=".8em" y="1479.5800018310547" x="566.5">weight:1</text></g></g><g id="minder_node55"><g id="node_expander54" style="cursor: pointer;" display="none"><path id="kity_path_496" fill="white" stroke="gray" d="M669.5,1539.5A6,6,0,1,1,657.5,1539.5A6,6,0,1,1,669.5,1539.5"></path><path id="kity_path_497" fill="none" stroke="gray"></path></g><path id="node_outline55" fill="none" stroke="none" d="M674.5,1528.5h58a5,5,0,0,1,5,5v12a5,5,0,0,1,-5,5h-58a5,5,0,0,1,-5,-5v-12a5,5,0,0,1,5,-5z" stroke-width="3"></path><g id="node_text55" fill="black"><text id="kity_text_493" text-rendering="inherit" font-size="12" dy=".8em" y="1531.5800018310547" x="679.5">weight:1</text></g></g><g id="minder_node56"><g id="node_expander55" style="cursor: pointer;" display="none"><path id="kity_path_504" fill="white" stroke="gray" d="M536.5,1591.5A6,6,0,1,1,524.5,1591.5A6,6,0,1,1,536.5,1591.5"></path><path id="kity_path_505" fill="none" stroke="gray"></path></g><path id="node_outline56" fill="none" stroke="none" d="M541.5,1580.5h58a5,5,0,0,1,5,5v12a5,5,0,0,1,-5,5h-58a5,5,0,0,1,-5,-5v-12a5,5,0,0,1,5,-5z" stroke-width="3"></path><g id="node_text56" fill="black"><text id="kity_text_501" text-rendering="inherit" font-size="12" dy=".8em" y="1583.5800018310547" x="546.5">weight:1</text></g></g><g id="minder_node57"><g id="node_expander56" style="cursor: pointer;" display="none"><path id="kity_path_512" fill="white" stroke="gray" d="M589.5,1643.5A6,6,0,1,1,577.5,1643.5A6,6,0,1,1,589.5,1643.5"></path><path id="kity_path_513" fill="none" stroke="gray"></path></g><path id="node_outline57" fill="none" stroke="none" d="M594.5,1632.5h85a5,5,0,0,1,5,5v12a5,5,0,0,1,-5,5h-85a5,5,0,0,1,-5,-5v-12a5,5,0,0,1,5,-5z" stroke-width="3"></path><g id="node_text57" fill="black"><text id="kity_text_509" text-rendering="inherit" font-size="12" dy=".8em" y="1635.5800018310547" x="599.5">weight:10000</text></g></g><g id="minder_node58"><g id="node_expander57" style="cursor: pointer;" display="none"><path id="kity_path_520" fill="white" stroke="gray" d="M579.5,1695.5A6,6,0,1,1,567.5,1695.5A6,6,0,1,1,579.5,1695.5"></path><path id="kity_path_521" fill="none" stroke="gray"></path></g><path id="node_outline58" fill="none" stroke="none" d="M584.5,1684.5h58a5,5,0,0,1,5,5v12a5,5,0,0,1,-5,5h-58a5,5,0,0,1,-5,-5v-12a5,5,0,0,1,5,-5z" stroke-width="3"></path><g id="node_text58" fill="black"><text id="kity_text_517" text-rendering="inherit" font-size="12" dy=".8em" y="1687.5800018310547" x="589.5">weight:2</text></g></g><g id="minder_node59"><g id="node_expander58" style="cursor: pointer;" display="none"><path id="kity_path_528" fill="white" stroke="gray" d="M549.5,1747.5A6,6,0,1,1,537.5,1747.5A6,6,0,1,1,549.5,1747.5"></path><path id="kity_path_529" fill="none" stroke="gray"></path></g><path id="node_outline59" fill="none" stroke="none" d="M554.5,1736.5h58a5,5,0,0,1,5,5v12a5,5,0,0,1,-5,5h-58a5,5,0,0,1,-5,-5v-12a5,5,0,0,1,5,-5z" stroke-width="3"></path><g id="node_text59" fill="black"><text id="kity_text_525" text-rendering="inherit" font-size="12" dy=".8em" y="1739.5800018310547" x="559.5">weight:1</text></g></g><g id="minder_node60"><g id="node_expander59" style="cursor: pointer;" display="none"><path id="kity_path_536" fill="white" stroke="gray" d="M421.5,1799.5A6,6,0,1,1,409.5,1799.5A6,6,0,1,1,421.5,1799.5"></path><path id="kity_path_537" fill="none" stroke="gray"></path></g><path id="node_outline60" fill="none" stroke="none" d="M426.5,1788.5h95a5,5,0,0,1,5,5v12a5,5,0,0,1,-5,5h-95a5,5,0,0,1,-5,-5v-12a5,5,0,0,1,5,-5z" stroke-width="3"></path><g id="node_text60" fill="black"><text id="kity_text_533" text-rendering="inherit" font-size="12" dy=".8em" y="1791.5800018310547" x="431.5">volumebinding</text></g></g><g id="minder_node61"><g id="node_expander60" style="cursor: pointer;" display="none"><path id="kity_path_544" fill="white" stroke="gray" d="M422.5,1851.5A6,6,0,1,1,410.5,1851.5A6,6,0,1,1,422.5,1851.5"></path><path id="kity_path_545" fill="none" stroke="gray"></path></g><path id="node_outline61" fill="none" stroke="none" d="M427.5,1840.5h95a5,5,0,0,1,5,5v12a5,5,0,0,1,-5,5h-95a5,5,0,0,1,-5,-5v-12a5,5,0,0,1,5,-5z" stroke-width="3"></path><g id="node_text61" fill="black"><text id="kity_text_541" text-rendering="inherit" font-size="12" dy=".8em" y="1843.5800018310547" x="432.5">volumebinding</text></g></g><g id="minder_node62"><g id="node_expander61" style="cursor: pointer;" display="none"><path id="kity_path_552" fill="white" stroke="gray" d="M403.5,1903.5A6,6,0,1,1,391.5,1903.5A6,6,0,1,1,403.5,1903.5"></path><path id="kity_path_553" fill="none" stroke="gray"></path></g><path id="node_outline62" fill="none" stroke="none" d="M408.5,1892.5h87a5,5,0,0,1,5,5v12a5,5,0,0,1,-5,5h-87a5,5,0,0,1,-5,-5v-12a5,5,0,0,1,5,-5z" stroke-width="3"></path><g id="node_text62" fill="black"><text id="kity_text_549" text-rendering="inherit" font-size="12" dy=".8em" y="1895.5800018310547" x="413.5">defaultbinder</text></g></g><g id="minder_node63"><g id="node_expander62" style="cursor: pointer;" display="none"><path id="kity_path_560" fill="white" stroke="gray" d="M553.5,343.5A6,6,0,1,1,541.5,343.5A6,6,0,1,1,553.5,343.5"></path><path id="kity_path_561" fill="none" stroke="gray"></path></g><path id="node_outline63" fill="none" stroke="none" d="M558.5,332.5h70a5,5,0,0,1,5,5v12a5,5,0,0,1,-5,5h-70a5,5,0,0,1,-5,-5v-12a5,5,0,0,1,5,-5z" stroke-width="3"></path><g id="node_text63" fill="black"><text id="kity_text_557" text-rendering="inherit" font-size="12" dy=".8em" y="335.5800018310547" x="563.5">优化点位置</text></g></g></g></g></svg>